<svg xmlns="http://www.w3.org/2000/svg" xmlns:xlink="http://www.w3.org/1999/xlink" width="282" zoomAndPan="magnify" viewBox="0 0 211.5 119.999999" height="160" preserveAspectRatio="xMidYMid meet" version="1.0"><defs><g/></defs><g fill="#d32f23" fill-opacity="0.4196"><g transform="translate(45.467118, 65.482292)"><g><path d="M 20 0 C 19.394531 0 19.113281 -0.300781 19.15625 -0.90625 L 19.03125 -5.78125 C 19.070312 -5.875 19.050781 -5.953125 18.96875 -6.015625 C 18.882812 -6.078125 18.796875 -6.109375 18.703125 -6.109375 L 13.109375 -6.109375 C 12.898438 -6.109375 12.753906 -6 12.671875 -5.78125 L 11.4375 -0.90625 C 11.3125 -0.300781 10.953125 0 10.359375 0 L 0.578125 0 C -0.0664062 0 -0.300781 -0.34375 -0.125 -1.03125 L 14.015625 -44.171875 C 14.191406 -44.734375 14.578125 -45.015625 15.171875 -45.015625 L 26.546875 -45.015625 C 27.148438 -45.015625 27.472656 -44.734375 27.515625 -44.171875 L 31.0625 -1.03125 L 31.0625 -0.90625 C 31.0625 -0.300781 30.738281 0 30.09375 0 Z M 15.296875 -15.6875 C 15.210938 -15.46875 15.28125 -15.359375 15.5 -15.359375 L 18.515625 -15.359375 C 18.640625 -15.359375 18.75 -15.46875 18.84375 -15.6875 L 18.578125 -27.578125 C 18.578125 -27.753906 18.523438 -27.832031 18.421875 -27.8125 C 18.316406 -27.789062 18.265625 -27.710938 18.265625 -27.578125 Z M 15.296875 -15.6875 "/></g></g></g><g fill="#d32f23" fill-opacity="0.4196"><g transform="translate(78.575008, 65.482292)"><g><path d="M 13.6875 0.515625 C 10.007812 0.515625 7.097656 -0.53125 4.953125 -2.625 C 2.804688 -4.726562 1.734375 -7.5625 1.734375 -11.125 C 1.734375 -11.59375 1.773438 -12.34375 1.859375 -13.375 L 5.65625 -44.046875 C 5.695312 -44.347656 5.8125 -44.582031 6 -44.75 C 6.195312 -44.925781 6.425781 -45.015625 6.6875 -45.015625 L 16.59375 -45.015625 C 16.84375 -45.015625 17.039062 -44.925781 17.1875 -44.75 C 17.34375 -44.582031 17.398438 -44.347656 17.359375 -44.046875 L 13.5 -12.21875 C 13.414062 -11.488281 13.5 -10.910156 13.75 -10.484375 C 14.007812 -10.054688 14.421875 -9.84375 14.984375 -9.84375 C 15.535156 -9.84375 15.992188 -10.054688 16.359375 -10.484375 C 16.722656 -10.910156 16.945312 -11.488281 17.03125 -12.21875 L 20.953125 -44.046875 C 21.003906 -44.347656 21.113281 -44.582031 21.28125 -44.75 C 21.457031 -44.925781 21.691406 -45.015625 21.984375 -45.015625 L 31.828125 -45.015625 C 32.128906 -45.015625 32.351562 -44.925781 32.5 -44.75 C 32.65625 -44.582031 32.707031 -44.347656 32.65625 -44.046875 L 28.875 -13.375 C 28.53125 -10.632812 27.671875 -8.210938 26.296875 -6.109375 C 24.921875 -4.003906 23.140625 -2.375 20.953125 -1.21875 C 18.773438 -0.0625 16.351562 0.515625 13.6875 0.515625 Z M 13.6875 0.515625 "/></g></g></g><g fill="#d32f23" fill-opacity="0.4196"><g transform="translate(108.597113, 65.482292)"><g><path d="M 33.375 -45.015625 C 33.625 -45.015625 33.820312 -44.925781 33.96875 -44.75 C 34.125 -44.582031 34.179688 -44.347656 34.140625 -44.046875 L 33.109375 -35.625 C 33.066406 -35.320312 32.957031 -35.082031 32.78125 -34.90625 C 32.613281 -34.738281 32.378906 -34.65625 32.078125 -34.65625 L 24.625 -34.65625 C 24.40625 -34.65625 24.296875 -34.546875 24.296875 -34.328125 L 20.1875 -0.96875 C 20.144531 -0.664062 20.035156 -0.425781 19.859375 -0.25 C 19.691406 -0.0820312 19.457031 0 19.15625 0 L 9.328125 0 C 9.023438 0 8.796875 -0.0820312 8.640625 -0.25 C 8.492188 -0.425781 8.441406 -0.664062 8.484375 -0.96875 L 12.609375 -34.328125 C 12.609375 -34.546875 12.5 -34.65625 12.28125 -34.65625 L 5.078125 -34.65625 C 4.773438 -34.65625 4.546875 -34.738281 4.390625 -34.90625 C 4.242188 -35.082031 4.195312 -35.320312 4.25 -35.625 L 5.265625 -44.046875 C 5.316406 -44.347656 5.4375 -44.582031 5.625 -44.75 C 5.820312 -44.925781 6.066406 -45.015625 6.359375 -45.015625 Z M 33.375 -45.015625 "/></g></g></g><g fill="#d32f23" fill-opacity="0.4196"><g transform="translate(139.7121, 65.482292)"><g><path d="M 13.765625 0.515625 C 9.941406 0.515625 6.9375 -0.519531 4.75 -2.59375 C 2.570312 -4.675781 1.484375 -7.5 1.484375 -11.0625 C 1.484375 -11.488281 1.523438 -12.21875 1.609375 -13.25 L 3.921875 -31.765625 C 4.429688 -35.960938 6.085938 -39.300781 8.890625 -41.78125 C 11.703125 -44.269531 15.210938 -45.515625 19.421875 -45.515625 C 23.191406 -45.515625 26.179688 -44.472656 28.390625 -42.390625 C 30.597656 -40.316406 31.703125 -37.503906 31.703125 -33.953125 C 31.703125 -33.523438 31.65625 -32.796875 31.5625 -31.765625 L 29.3125 -13.25 C 28.800781 -9.039062 27.128906 -5.691406 24.296875 -3.203125 C 21.472656 -0.722656 17.960938 0.515625 13.765625 0.515625 Z M 15.046875 -9.84375 C 15.691406 -9.84375 16.238281 -10.097656 16.6875 -10.609375 C 17.132812 -11.117188 17.421875 -11.828125 17.546875 -12.734375 L 19.9375 -32.28125 C 20.019531 -33.175781 19.910156 -33.878906 19.609375 -34.390625 C 19.304688 -34.910156 18.835938 -35.171875 18.203125 -35.171875 C 17.515625 -35.171875 16.941406 -34.910156 16.484375 -34.390625 C 16.035156 -33.878906 15.769531 -33.175781 15.6875 -32.28125 L 13.3125 -12.734375 C 13.269531 -12.554688 13.25 -12.320312 13.25 -12.03125 C 13.25 -11.34375 13.40625 -10.804688 13.71875 -10.421875 C 14.039062 -10.035156 14.484375 -9.84375 15.046875 -9.84375 Z M 15.046875 -9.84375 "/></g></g></g><g fill="#ffffff" fill-opacity="1"><g transform="translate(43.555779, 63.761313)"><g><path d="M 20 0 C 19.394531 0 19.113281 -0.300781 19.15625 -0.90625 L 19.03125 -5.78125 C 19.070312 -5.875 19.050781 -5.953125 18.96875 -6.015625 C 18.882812 -6.078125 18.796875 -6.109375 18.703125 -6.109375 L 13.109375 -6.109375 C 12.898438 -6.109375 12.753906 -6 12.671875 -5.78125 L 11.4375 -0.90625 C 11.3125 -0.300781 10.953125 0 10.359375 0 L 0.578125 0 C -0.0664062 0 -0.300781 -0.34375 -0.125 -1.03125 L 14.015625 -44.171875 C 14.191406 -44.734375 14.578125 -45.015625 15.171875 -45.015625 L 26.546875 -45.015625 C 27.148438 -45.015625 27.472656 -44.734375 27.515625 -44.171875 L 31.0625 -1.03125 L 31.0625 -0.90625 C 31.0625 -0.300781 30.738281 0 30.09375 0 Z M 15.296875 -15.6875 C 15.210938 -15.46875 15.28125 -15.359375 15.5 -15.359375 L 18.515625 -15.359375 C 18.640625 -15.359375 18.75 -15.46875 18.84375 -15.6875 L 18.578125 -27.578125 C 18.578125 -27.753906 18.523438 -27.832031 18.421875 -27.8125 C 18.316406 -27.789062 18.265625 -27.710938 18.265625 -27.578125 Z M 15.296875 -15.6875 "/></g></g></g><g fill="#ffffff" fill-opacity="1"><g transform="translate(76.663668, 63.761313)"><g><path d="M 13.6875 0.515625 C 10.007812 0.515625 7.097656 -0.53125 4.953125 -2.625 C 2.804688 -4.726562 1.734375 -7.5625 1.734375 -11.125 C 1.734375 -11.59375 1.773438 -12.34375 1.859375 -13.375 L 5.65625 -44.046875 C 5.695312 -44.347656 5.8125 -44.582031 6 -44.75 C 6.195312 -44.925781 6.425781 -45.015625 6.6875 -45.015625 L 16.59375 -45.015625 C 16.84375 -45.015625 17.039062 -44.925781 17.1875 -44.75 C 17.34375 -44.582031 17.398438 -44.347656 17.359375 -44.046875 L 13.5 -12.21875 C 13.414062 -11.488281 13.5 -10.910156 13.75 -10.484375 C 14.007812 -10.054688 14.421875 -9.84375 14.984375 -9.84375 C 15.535156 -9.84375 15.992188 -10.054688 16.359375 -10.484375 C 16.722656 -10.910156 16.945312 -11.488281 17.03125 -12.21875 L 20.953125 -44.046875 C 21.003906 -44.347656 21.113281 -44.582031 21.28125 -44.75 C 21.457031 -44.925781 21.691406 -45.015625 21.984375 -45.015625 L 31.828125 -45.015625 C 32.128906 -45.015625 32.351562 -44.925781 32.5 -44.75 C 32.65625 -44.582031 32.707031 -44.347656 32.65625 -44.046875 L 28.875 -13.375 C 28.53125 -10.632812 27.671875 -8.210938 26.296875 -6.109375 C 24.921875 -4.003906 23.140625 -2.375 20.953125 -1.21875 C 18.773438 -0.0625 16.351562 0.515625 13.6875 0.515625 Z M 13.6875 0.515625 "/></g></g></g><g fill="#ffffff" fill-opacity="1"><g transform="translate(106.685774, 63.761313)"><g><path d="M 33.375 -45.015625 C 33.625 -45.015625 33.820312 -44.925781 33.96875 -44.75 C 34.125 -44.582031 34.179688 -44.347656 34.140625 -44.046875 L 33.109375 -35.625 C 33.066406 -35.320312 32.957031 -35.082031 32.78125 -34.90625 C 32.613281 -34.738281 32.378906 -34.65625 32.078125 -34.65625 L 24.625 -34.65625 C 24.40625 -34.65625 24.296875 -34.546875 24.296875 -34.328125 L 20.1875 -0.96875 C 20.144531 -0.664062 20.035156 -0.425781 19.859375 -0.25 C 19.691406 -0.0820312 19.457031 0 19.15625 0 L 9.328125 0 C 9.023438 0 8.796875 -0.0820312 8.640625 -0.25 C 8.492188 -0.425781 8.441406 -0.664062 8.484375 -0.96875 L 12.609375 -34.328125 C 12.609375 -34.546875 12.5 -34.65625 12.28125 -34.65625 L 5.078125 -34.65625 C 4.773438 -34.65625 4.546875 -34.738281 4.390625 -34.90625 C 4.242188 -35.082031 4.195312 -35.320312 4.25 -35.625 L 5.265625 -44.046875 C 5.316406 -44.347656 5.4375 -44.582031 5.625 -44.75 C 5.820312 -44.925781 6.066406 -45.015625 6.359375 -45.015625 Z M 33.375 -45.015625 "/></g></g></g><g fill="#ffffff" fill-opacity="1"><g transform="translate(137.80076, 63.761313)"><g><path d="M 13.765625 0.515625 C 9.941406 0.515625 6.9375 -0.519531 4.75 -2.59375 C 2.570312 -4.675781 1.484375 -7.5 1.484375 -11.0625 C 1.484375 -11.488281 1.523438 -12.21875 1.609375 -13.25 L 3.921875 -31.765625 C 4.429688 -35.960938 6.085938 -39.300781 8.890625 -41.78125 C 11.703125 -44.269531 15.210938 -45.515625 19.421875 -45.515625 C 23.191406 -45.515625 26.179688 -44.472656 28.390625 -42.390625 C 30.597656 -40.316406 31.703125 -37.503906 31.703125 -33.953125 C 31.703125 -33.523438 31.65625 -32.796875 31.5625 -31.765625 L 29.3125 -13.25 C 28.800781 -9.039062 27.128906 -5.691406 24.296875 -3.203125 C 21.472656 -0.722656 17.960938 0.515625 13.765625 0.515625 Z M 15.046875 -9.84375 C 15.691406 -9.84375 16.238281 -10.097656 16.6875 -10.609375 C 17.132812 -11.117188 17.421875 -11.828125 17.546875 -12.734375 L 19.9375 -32.28125 C 20.019531 -33.175781 19.910156 -33.878906 19.609375 -34.390625 C 19.304688 -34.910156 18.835938 -35.171875 18.203125 -35.171875 C 17.515625 -35.171875 16.941406 -34.910156 16.484375 -34.390625 C 16.035156 -33.878906 15.769531 -33.175781 15.6875 -32.28125 L 13.3125 -12.734375 C 13.269531 -12.554688 13.25 -12.320312 13.25 -12.03125 C 13.25 -11.34375 13.40625 -10.804688 13.71875 -10.421875 C 14.039062 -10.035156 14.484375 -9.84375 15.046875 -9.84375 Z M 15.046875 -9.84375 "/></g></g></g><g fill="#d32f23" fill-opacity="0.4196"><g transform="translate(16.132511, 110.602289)"><g><path d="M 15.390625 0 C 14.929688 0 14.664062 -0.242188 14.59375 -0.734375 L 12.953125 -15.046875 C 12.953125 -15.203125 12.894531 -15.28125 12.78125 -15.28125 C 12.625 -15.28125 12.546875 -15.179688 12.546875 -14.984375 L 10.78125 -0.859375 C 10.75 -0.585938 10.644531 -0.375 10.46875 -0.21875 C 10.300781 -0.0703125 10.101562 0 9.875 0 L 1.140625 0 C 0.910156 0 0.726562 -0.0703125 0.59375 -0.21875 C 0.457031 -0.375 0.410156 -0.585938 0.453125 -0.859375 L 5.109375 -38.890625 C 5.148438 -39.160156 5.253906 -39.367188 5.421875 -39.515625 C 5.585938 -39.671875 5.785156 -39.75 6.015625 -39.75 L 18.453125 -39.75 C 21.484375 -39.75 23.878906 -38.78125 25.640625 -36.84375 C 27.398438 -34.914062 28.28125 -32.363281 28.28125 -29.1875 C 28.28125 -28.28125 28.238281 -27.578125 28.15625 -27.078125 C 27.894531 -25.003906 27.3125 -23.140625 26.40625 -21.484375 C 25.5 -19.835938 24.328125 -18.503906 22.890625 -17.484375 C 22.691406 -17.367188 22.632812 -17.238281 22.71875 -17.09375 L 25.15625 -0.96875 L 25.15625 -0.734375 C 25.15625 -0.503906 25.078125 -0.320312 24.921875 -0.1875 C 24.773438 -0.0625 24.585938 0 24.359375 0 Z M 14.703125 -30.609375 C 14.515625 -30.609375 14.421875 -30.515625 14.421875 -30.328125 L 13.578125 -23.671875 C 13.578125 -23.484375 13.671875 -23.390625 13.859375 -23.390625 L 14.59375 -23.390625 C 15.5 -23.390625 16.265625 -23.785156 16.890625 -24.578125 C 17.515625 -25.378906 17.828125 -26.476562 17.828125 -27.875 C 17.828125 -28.75 17.617188 -29.421875 17.203125 -29.890625 C 16.785156 -30.367188 16.21875 -30.609375 15.5 -30.609375 Z M 14.703125 -30.609375 "/></g></g></g><g fill="#d32f23" fill-opacity="0.4196"><g transform="translate(43.095177, 110.602289)"><g><path d="M 26.234375 -31.453125 C 26.191406 -31.191406 26.085938 -30.984375 25.921875 -30.828125 C 25.753906 -30.679688 25.535156 -30.609375 25.265625 -30.609375 L 14.703125 -30.609375 C 14.515625 -30.609375 14.421875 -30.515625 14.421875 -30.328125 L 13.734375 -24.75 C 13.660156 -24.5625 13.738281 -24.46875 13.96875 -24.46875 L 19.46875 -24.46875 C 19.738281 -24.46875 19.9375 -24.390625 20.0625 -24.234375 C 20.195312 -24.085938 20.25 -23.882812 20.21875 -23.625 L 19.3125 -16.1875 C 19.195312 -15.613281 18.875 -15.328125 18.34375 -15.328125 L 12.828125 -15.328125 C 12.640625 -15.328125 12.546875 -15.234375 12.546875 -15.046875 L 11.875 -9.421875 C 11.789062 -9.234375 11.863281 -9.140625 12.09375 -9.140625 L 22.65625 -9.140625 C 22.914062 -9.140625 23.113281 -9.0625 23.25 -8.90625 C 23.382812 -8.757812 23.429688 -8.554688 23.390625 -8.296875 L 22.484375 -0.859375 C 22.441406 -0.585938 22.335938 -0.375 22.171875 -0.21875 C 22.003906 -0.0703125 21.785156 0 21.515625 0 L 1.140625 0 C 0.910156 0 0.726562 -0.0703125 0.59375 -0.21875 C 0.457031 -0.375 0.410156 -0.585938 0.453125 -0.859375 L 5.109375 -38.890625 C 5.148438 -39.160156 5.253906 -39.367188 5.421875 -39.515625 C 5.585938 -39.671875 5.785156 -39.75 6.015625 -39.75 L 26.40625 -39.75 C 26.664062 -39.75 26.863281 -39.671875 27 -39.515625 C 27.132812 -39.367188 27.179688 -39.160156 27.140625 -38.890625 Z M 26.234375 -31.453125 "/></g></g></g><g fill="#ffde59" fill-opacity="1"><g transform="translate(14.221171, 108.881311)"><g><path d="M 15.390625 0 C 14.929688 0 14.664062 -0.242188 14.59375 -0.734375 L 12.953125 -15.046875 C 12.953125 -15.203125 12.894531 -15.28125 12.78125 -15.28125 C 12.625 -15.28125 12.546875 -15.179688 12.546875 -14.984375 L 10.78125 -0.859375 C 10.75 -0.585938 10.644531 -0.375 10.46875 -0.21875 C 10.300781 -0.0703125 10.101562 0 9.875 0 L 1.140625 0 C 0.910156 0 0.726562 -0.0703125 0.59375 -0.21875 C 0.457031 -0.375 0.410156 -0.585938 0.453125 -0.859375 L 5.109375 -38.890625 C 5.148438 -39.160156 5.253906 -39.367188 5.421875 -39.515625 C 5.585938 -39.671875 5.785156 -39.75 6.015625 -39.75 L 18.453125 -39.75 C 21.484375 -39.75 23.878906 -38.78125 25.640625 -36.84375 C 27.398438 -34.914062 28.28125 -32.363281 28.28125 -29.1875 C 28.28125 -28.28125 28.238281 -27.578125 28.15625 -27.078125 C 27.894531 -25.003906 27.3125 -23.140625 26.40625 -21.484375 C 25.5 -19.835938 24.328125 -18.503906 22.890625 -17.484375 C 22.691406 -17.367188 22.632812 -17.238281 22.71875 -17.09375 L 25.15625 -0.96875 L 25.15625 -0.734375 C 25.15625 -0.503906 25.078125 -0.320312 24.921875 -0.1875 C 24.773438 -0.0625 24.585938 0 24.359375 0 Z M 14.703125 -30.609375 C 14.515625 -30.609375 14.421875 -30.515625 14.421875 -30.328125 L 13.578125 -23.671875 C 13.578125 -23.484375 13.671875 -23.390625 13.859375 -23.390625 L 14.59375 -23.390625 C 15.5 -23.390625 16.265625 -23.785156 16.890625 -24.578125 C 17.515625 -25.378906 17.828125 -26.476562 17.828125 -27.875 C 17.828125 -28.75 17.617188 -29.421875 17.203125 -29.890625 C 16.785156 -30.367188 16.21875 -30.609375 15.5 -30.609375 Z M 14.703125 -30.609375 "/></g></g></g><g fill="#ffde59" fill-opacity="1"><g transform="translate(41.183837, 108.881311)"><g><path d="M 26.234375 -31.453125 C 26.191406 -31.191406 26.085938 -30.984375 25.921875 -30.828125 C 25.753906 -30.679688 25.535156 -30.609375 25.265625 -30.609375 L 14.703125 -30.609375 C 14.515625 -30.609375 14.421875 -30.515625 14.421875 -30.328125 L 13.734375 -24.75 C 13.660156 -24.5625 13.738281 -24.46875 13.96875 -24.46875 L 19.46875 -24.46875 C 19.738281 -24.46875 19.9375 -24.390625 20.0625 -24.234375 C 20.195312 -24.085938 20.25 -23.882812 20.21875 -23.625 L 19.3125 -16.1875 C 19.195312 -15.613281 18.875 -15.328125 18.34375 -15.328125 L 12.828125 -15.328125 C 12.640625 -15.328125 12.546875 -15.234375 12.546875 -15.046875 L 11.875 -9.421875 C 11.789062 -9.234375 11.863281 -9.140625 12.09375 -9.140625 L 22.65625 -9.140625 C 22.914062 -9.140625 23.113281 -9.0625 23.25 -8.90625 C 23.382812 -8.757812 23.429688 -8.554688 23.390625 -8.296875 L 22.484375 -0.859375 C 22.441406 -0.585938 22.335938 -0.375 22.171875 -0.21875 C 22.003906 -0.0703125 21.785156 0 21.515625 0 L 1.140625 0 C 0.910156 0 0.726562 -0.0703125 0.59375 -0.21875 C 0.457031 -0.375 0.410156 -0.585938 0.453125 -0.859375 L 5.109375 -38.890625 C 5.148438 -39.160156 5.253906 -39.367188 5.421875 -39.515625 C 5.585938 -39.671875 5.785156 -39.75 6.015625 -39.75 L 26.40625 -39.75 C 26.664062 -39.75 26.863281 -39.671875 27 -39.515625 C 27.132812 -39.367188 27.179688 -39.160156 27.140625 -38.890625 Z M 26.234375 -31.453125 "/></g></g></g><g fill="#d32f23" fill-opacity="0.4196"><g transform="translate(67.553445, 110.602289)"><g><path d="M 12.15625 0.453125 C 8.78125 0.453125 6.128906 -0.460938 4.203125 -2.296875 C 2.273438 -4.128906 1.3125 -6.617188 1.3125 -9.765625 C 1.3125 -10.140625 1.347656 -10.785156 1.421875 -11.703125 L 3.46875 -28.046875 C 3.914062 -31.753906 5.378906 -34.707031 7.859375 -36.90625 C 10.335938 -39.101562 13.429688 -40.203125 17.140625 -40.203125 C 20.472656 -40.203125 23.113281 -39.28125 25.0625 -37.4375 C 27.019531 -35.601562 28 -33.117188 28 -29.984375 C 28 -29.597656 27.957031 -28.953125 27.875 -28.046875 L 25.890625 -11.703125 C 25.429688 -7.984375 23.953125 -5.023438 21.453125 -2.828125 C 18.960938 -0.640625 15.863281 0.453125 12.15625 0.453125 Z M 13.28125 -8.6875 C 13.851562 -8.6875 14.335938 -8.910156 14.734375 -9.359375 C 15.128906 -9.816406 15.382812 -10.445312 15.5 -11.25 L 17.609375 -28.5 C 17.679688 -29.300781 17.582031 -29.925781 17.3125 -30.375 C 17.050781 -30.832031 16.632812 -31.0625 16.0625 -31.0625 C 15.457031 -31.0625 14.957031 -30.832031 14.5625 -30.375 C 14.164062 -29.925781 13.929688 -29.300781 13.859375 -28.5 L 11.75 -11.25 C 11.71875 -11.09375 11.703125 -10.882812 11.703125 -10.625 C 11.703125 -10.007812 11.84375 -9.53125 12.125 -9.1875 C 12.40625 -8.851562 12.789062 -8.6875 13.28125 -8.6875 Z M 13.28125 -8.6875 "/></g></g></g><g fill="#d32f23" fill-opacity="0.4196"><g transform="translate(94.175531, 110.602289)"><g><path d="M 15.390625 0 C 14.929688 0 14.664062 -0.242188 14.59375 -0.734375 L 12.953125 -15.046875 C 12.953125 -15.203125 12.894531 -15.28125 12.78125 -15.28125 C 12.625 -15.28125 12.546875 -15.179688 12.546875 -14.984375 L 10.78125 -0.859375 C 10.75 -0.585938 10.644531 -0.375 10.46875 -0.21875 C 10.300781 -0.0703125 10.101562 0 9.875 0 L 1.140625 0 C 0.910156 0 0.726562 -0.0703125 0.59375 -0.21875 C 0.457031 -0.375 0.410156 -0.585938 0.453125 -0.859375 L 5.109375 -38.890625 C 5.148438 -39.160156 5.253906 -39.367188 5.421875 -39.515625 C 5.585938 -39.671875 5.785156 -39.75 6.015625 -39.75 L 18.453125 -39.75 C 21.484375 -39.75 23.878906 -38.78125 25.640625 -36.84375 C 27.398438 -34.914062 28.28125 -32.363281 28.28125 -29.1875 C 28.28125 -28.28125 28.238281 -27.578125 28.15625 -27.078125 C 27.894531 -25.003906 27.3125 -23.140625 26.40625 -21.484375 C 25.5 -19.835938 24.328125 -18.503906 22.890625 -17.484375 C 22.691406 -17.367188 22.632812 -17.238281 22.71875 -17.09375 L 25.15625 -0.96875 L 25.15625 -0.734375 C 25.15625 -0.503906 25.078125 -0.320312 24.921875 -0.1875 C 24.773438 -0.0625 24.585938 0 24.359375 0 Z M 14.703125 -30.609375 C 14.515625 -30.609375 14.421875 -30.515625 14.421875 -30.328125 L 13.578125 -23.671875 C 13.578125 -23.484375 13.671875 -23.390625 13.859375 -23.390625 L 14.59375 -23.390625 C 15.5 -23.390625 16.265625 -23.785156 16.890625 -24.578125 C 17.515625 -25.378906 17.828125 -26.476562 17.828125 -27.875 C 17.828125 -28.75 17.617188 -29.421875 17.203125 -29.890625 C 16.785156 -30.367188 16.21875 -30.609375 15.5 -30.609375 Z M 14.703125 -30.609375 "/></g></g></g><g fill="#d32f23" fill-opacity="0.4196"><g transform="translate(121.138197, 110.602289)"><g><path d="M 1.140625 0 C 0.910156 0 0.726562 -0.0703125 0.59375 -0.21875 C 0.457031 -0.375 0.410156 -0.585938 0.453125 -0.859375 L 5.109375 -38.890625 C 5.148438 -39.160156 5.253906 -39.367188 5.421875 -39.515625 C 5.585938 -39.671875 5.785156 -39.75 6.015625 -39.75 L 16.859375 -39.75 C 20.234375 -39.75 22.910156 -38.867188 24.890625 -37.109375 C 26.878906 -35.347656 27.875 -32.988281 27.875 -30.03125 C 27.875 -29.695312 27.835938 -29.148438 27.765625 -28.390625 L 25.671875 -11.359375 C 25.398438 -9.117188 24.648438 -7.140625 23.421875 -5.421875 C 22.191406 -3.703125 20.582031 -2.367188 18.59375 -1.421875 C 16.601562 -0.472656 14.398438 0 11.984375 0 Z M 11.875 -9.421875 C 11.789062 -9.234375 11.863281 -9.140625 12.09375 -9.140625 L 12.890625 -9.203125 C 13.492188 -9.234375 14.03125 -9.515625 14.5 -10.046875 C 14.976562 -10.578125 15.289062 -11.257812 15.4375 -12.09375 L 17.3125 -27.703125 L 17.375 -28.328125 C 17.375 -29.046875 17.203125 -29.601562 16.859375 -30 C 16.523438 -30.40625 16.070312 -30.609375 15.5 -30.609375 L 14.703125 -30.609375 C 14.515625 -30.609375 14.421875 -30.515625 14.421875 -30.328125 Z M 11.875 -9.421875 "/></g></g></g><g fill="#d32f23" fill-opacity="0.4196"><g transform="translate(147.760283, 110.602289)"><g><path d="M 26.234375 -31.453125 C 26.191406 -31.191406 26.085938 -30.984375 25.921875 -30.828125 C 25.753906 -30.679688 25.535156 -30.609375 25.265625 -30.609375 L 14.703125 -30.609375 C 14.515625 -30.609375 14.421875 -30.515625 14.421875 -30.328125 L 13.734375 -24.75 C 13.660156 -24.5625 13.738281 -24.46875 13.96875 -24.46875 L 19.46875 -24.46875 C 19.738281 -24.46875 19.9375 -24.390625 20.0625 -24.234375 C 20.195312 -24.085938 20.25 -23.882812 20.21875 -23.625 L 19.3125 -16.1875 C 19.195312 -15.613281 18.875 -15.328125 18.34375 -15.328125 L 12.828125 -15.328125 C 12.640625 -15.328125 12.546875 -15.234375 12.546875 -15.046875 L 11.875 -9.421875 C 11.789062 -9.234375 11.863281 -9.140625 12.09375 -9.140625 L 22.65625 -9.140625 C 22.914062 -9.140625 23.113281 -9.0625 23.25 -8.90625 C 23.382812 -8.757812 23.429688 -8.554688 23.390625 -8.296875 L 22.484375 -0.859375 C 22.441406 -0.585938 22.335938 -0.375 22.171875 -0.21875 C 22.003906 -0.0703125 21.785156 0 21.515625 0 L 1.140625 0 C 0.910156 0 0.726562 -0.0703125 0.59375 -0.21875 C 0.457031 -0.375 0.410156 -0.585938 0.453125 -0.859375 L 5.109375 -38.890625 C 5.148438 -39.160156 5.253906 -39.367188 5.421875 -39.515625 C 5.585938 -39.671875 5.785156 -39.75 6.015625 -39.75 L 26.40625 -39.75 C 26.664062 -39.75 26.863281 -39.671875 27 -39.515625 C 27.132812 -39.367188 27.179688 -39.160156 27.140625 -38.890625 Z M 26.234375 -31.453125 "/></g></g></g><g fill="#d32f23" fill-opacity="0.4196"><g transform="translate(172.225361, 110.602289)"><g><path d="M 15.390625 0 C 14.929688 0 14.664062 -0.242188 14.59375 -0.734375 L 12.953125 -15.046875 C 12.953125 -15.203125 12.894531 -15.28125 12.78125 -15.28125 C 12.625 -15.28125 12.546875 -15.179688 12.546875 -14.984375 L 10.78125 -0.859375 C 10.75 -0.585938 10.644531 -0.375 10.46875 -0.21875 C 10.300781 -0.0703125 10.101562 0 9.875 0 L 1.140625 0 C 0.910156 0 0.726562 -0.0703125 0.59375 -0.21875 C 0.457031 -0.375 0.410156 -0.585938 0.453125 -0.859375 L 5.109375 -38.890625 C 5.148438 -39.160156 5.253906 -39.367188 5.421875 -39.515625 C 5.585938 -39.671875 5.785156 -39.75 6.015625 -39.75 L 18.453125 -39.75 C 21.484375 -39.75 23.878906 -38.78125 25.640625 -36.84375 C 27.398438 -34.914062 28.28125 -32.363281 28.28125 -29.1875 C 28.28125 -28.28125 28.238281 -27.578125 28.15625 -27.078125 C 27.894531 -25.003906 27.3125 -23.140625 26.40625 -21.484375 C 25.5 -19.835938 24.328125 -18.503906 22.890625 -17.484375 C 22.691406 -17.367188 22.632812 -17.238281 22.71875 -17.09375 L 25.15625 -0.96875 L 25.15625 -0.734375 C 25.15625 -0.503906 25.078125 -0.320312 24.921875 -0.1875 C 24.773438 -0.0625 24.585938 0 24.359375 0 Z M 14.703125 -30.609375 C 14.515625 -30.609375 14.421875 -30.515625 14.421875 -30.328125 L 13.578125 -23.671875 C 13.578125 -23.484375 13.671875 -23.390625 13.859375 -23.390625 L 14.59375 -23.390625 C 15.5 -23.390625 16.265625 -23.785156 16.890625 -24.578125 C 17.515625 -25.378906 17.828125 -26.476562 17.828125 -27.875 C 17.828125 -28.75 17.617188 -29.421875 17.203125 -29.890625 C 16.785156 -30.367188 16.21875 -30.609375 15.5 -30.609375 Z M 14.703125 -30.609375 "/></g></g></g><g fill="#ffde59" fill-opacity="1"><g transform="translate(65.642106, 108.881311)"><g><path d="M 12.15625 0.453125 C 8.78125 0.453125 6.128906 -0.460938 4.203125 -2.296875 C 2.273438 -4.128906 1.3125 -6.617188 1.3125 -9.765625 C 1.3125 -10.140625 1.347656 -10.785156 1.421875 -11.703125 L 3.46875 -28.046875 C 3.914062 -31.753906 5.378906 -34.707031 7.859375 -36.90625 C 10.335938 -39.101562 13.429688 -40.203125 17.140625 -40.203125 C 20.472656 -40.203125 23.113281 -39.28125 25.0625 -37.4375 C 27.019531 -35.601562 28 -33.117188 28 -29.984375 C 28 -29.597656 27.957031 -28.953125 27.875 -28.046875 L 25.890625 -11.703125 C 25.429688 -7.984375 23.953125 -5.023438 21.453125 -2.828125 C 18.960938 -0.640625 15.863281 0.453125 12.15625 0.453125 Z M 13.28125 -8.6875 C 13.851562 -8.6875 14.335938 -8.910156 14.734375 -9.359375 C 15.128906 -9.816406 15.382812 -10.445312 15.5 -11.25 L 17.609375 -28.5 C 17.679688 -29.300781 17.582031 -29.925781 17.3125 -30.375 C 17.050781 -30.832031 16.632812 -31.0625 16.0625 -31.0625 C 15.457031 -31.0625 14.957031 -30.832031 14.5625 -30.375 C 14.164062 -29.925781 13.929688 -29.300781 13.859375 -28.5 L 11.75 -11.25 C 11.71875 -11.09375 11.703125 -10.882812 11.703125 -10.625 C 11.703125 -10.007812 11.84375 -9.53125 12.125 -9.1875 C 12.40625 -8.851562 12.789062 -8.6875 13.28125 -8.6875 Z M 13.28125 -8.6875 "/></g></g></g><g fill="#ffde59" fill-opacity="1"><g transform="translate(92.264191, 108.881311)"><g><path d="M 15.390625 0 C 14.929688 0 14.664062 -0.242188 14.59375 -0.734375 L 12.953125 -15.046875 C 12.953125 -15.203125 12.894531 -15.28125 12.78125 -15.28125 C 12.625 -15.28125 12.546875 -15.179688 12.546875 -14.984375 L 10.78125 -0.859375 C 10.75 -0.585938 10.644531 -0.375 10.46875 -0.21875 C 10.300781 -0.0703125 10.101562 0 9.875 0 L 1.140625 0 C 0.910156 0 0.726562 -0.0703125 0.59375 -0.21875 C 0.457031 -0.375 0.410156 -0.585938 0.453125 -0.859375 L 5.109375 -38.890625 C 5.148438 -39.160156 5.253906 -39.367188 5.421875 -39.515625 C 5.585938 -39.671875 5.785156 -39.75 6.015625 -39.75 L 18.453125 -39.75 C 21.484375 -39.75 23.878906 -38.78125 25.640625 -36.84375 C 27.398438 -34.914062 28.28125 -32.363281 28.28125 -29.1875 C 28.28125 -28.28125 28.238281 -27.578125 28.15625 -27.078125 C 27.894531 -25.003906 27.3125 -23.140625 26.40625 -21.484375 C 25.5 -19.835938 24.328125 -18.503906 22.890625 -17.484375 C 22.691406 -17.367188 22.632812 -17.238281 22.71875 -17.09375 L 25.15625 -0.96875 L 25.15625 -0.734375 C 25.15625 -0.503906 25.078125 -0.320312 24.921875 -0.1875 C 24.773438 -0.0625 24.585938 0 24.359375 0 Z M 14.703125 -30.609375 C 14.515625 -30.609375 14.421875 -30.515625 14.421875 -30.328125 L 13.578125 -23.671875 C 13.578125 -23.484375 13.671875 -23.390625 13.859375 -23.390625 L 14.59375 -23.390625 C 15.5 -23.390625 16.265625 -23.785156 16.890625 -24.578125 C 17.515625 -25.378906 17.828125 -26.476562 17.828125 -27.875 C 17.828125 -28.75 17.617188 -29.421875 17.203125 -29.890625 C 16.785156 -30.367188 16.21875 -30.609375 15.5 -30.609375 Z M 14.703125 -30.609375 "/></g></g></g><g fill="#ffde59" fill-opacity="1"><g transform="translate(119.226858, 108.881311)"><g><path d="M 1.140625 0 C 0.910156 0 0.726562 -0.0703125 0.59375 -0.21875 C 0.457031 -0.375 0.410156 -0.585938 0.453125 -0.859375 L 5.109375 -38.890625 C 5.148438 -39.160156 5.253906 -39.367188 5.421875 -39.515625 C 5.585938 -39.671875 5.785156 -39.75 6.015625 -39.75 L 16.859375 -39.75 C 20.234375 -39.75 22.910156 -38.867188 24.890625 -37.109375 C 26.878906 -35.347656 27.875 -32.988281 27.875 -30.03125 C 27.875 -29.695312 27.835938 -29.148438 27.765625 -28.390625 L 25.671875 -11.359375 C 25.398438 -9.117188 24.648438 -7.140625 23.421875 -5.421875 C 22.191406 -3.703125 20.582031 -2.367188 18.59375 -1.421875 C 16.601562 -0.472656 14.398438 0 11.984375 0 Z M 11.875 -9.421875 C 11.789062 -9.234375 11.863281 -9.140625 12.09375 -9.140625 L 12.890625 -9.203125 C 13.492188 -9.234375 14.03125 -9.515625 14.5 -10.046875 C 14.976562 -10.578125 15.289062 -11.257812 15.4375 -12.09375 L 17.3125 -27.703125 L 17.375 -28.328125 C 17.375 -29.046875 17.203125 -29.601562 16.859375 -30 C 16.523438 -30.40625 16.070312 -30.609375 15.5 -30.609375 L 14.703125 -30.609375 C 14.515625 -30.609375 14.421875 -30.515625 14.421875 -30.328125 Z M 11.875 -9.421875 "/></g></g></g><g fill="#ffde59" fill-opacity="1"><g transform="translate(145.848944, 108.881311)"><g><path d="M 26.234375 -31.453125 C 26.191406 -31.191406 26.085938 -30.984375 25.921875 -30.828125 C 25.753906 -30.679688 25.535156 -30.609375 25.265625 -30.609375 L 14.703125 -30.609375 C 14.515625 -30.609375 14.421875 -30.515625 14.421875 -30.328125 L 13.734375 -24.75 C 13.660156 -24.5625 13.738281 -24.46875 13.96875 -24.46875 L 19.46875 -24.46875 C 19.738281 -24.46875 19.9375 -24.390625 20.0625 -24.234375 C 20.195312 -24.085938 20.25 -23.882812 20.21875 -23.625 L 19.3125 -16.1875 C 19.195312 -15.613281 18.875 -15.328125 18.34375 -15.328125 L 12.828125 -15.328125 C 12.640625 -15.328125 12.546875 -15.234375 12.546875 -15.046875 L 11.875 -9.421875 C 11.789062 -9.234375 11.863281 -9.140625 12.09375 -9.140625 L 22.65625 -9.140625 C 22.914062 -9.140625 23.113281 -9.0625 23.25 -8.90625 C 23.382812 -8.757812 23.429688 -8.554688 23.390625 -8.296875 L 22.484375 -0.859375 C 22.441406 -0.585938 22.335938 -0.375 22.171875 -0.21875 C 22.003906 -0.0703125 21.785156 0 21.515625 0 L 1.140625 0 C 0.910156 0 0.726562 -0.0703125 0.59375 -0.21875 C 0.457031 -0.375 0.410156 -0.585938 0.453125 -0.859375 L 5.109375 -38.890625 C 5.148438 -39.160156 5.253906 -39.367188 5.421875 -39.515625 C 5.585938 -39.671875 5.785156 -39.75 6.015625 -39.75 L 26.40625 -39.75 C 26.664062 -39.75 26.863281 -39.671875 27 -39.515625 C 27.132812 -39.367188 27.179688 -39.160156 27.140625 -38.890625 Z M 26.234375 -31.453125 "/></g></g></g><g fill="#ffde59" fill-opacity="1"><g transform="translate(170.314021, 108.881311)"><g><path d="M 15.390625 0 C 14.929688 0 14.664062 -0.242188 14.59375 -0.734375 L 12.953125 -15.046875 C 12.953125 -15.203125 12.894531 -15.28125 12.78125 -15.28125 C 12.625 -15.28125 12.546875 -15.179688 12.546875 -14.984375 L 10.78125 -0.859375 C 10.75 -0.585938 10.644531 -0.375 10.46875 -0.21875 C 10.300781 -0.0703125 10.101562 0 9.875 0 L 1.140625 0 C 0.910156 0 0.726562 -0.0703125 0.59375 -0.21875 C 0.457031 -0.375 0.410156 -0.585938 0.453125 -0.859375 L 5.109375 -38.890625 C 5.148438 -39.160156 5.253906 -39.367188 5.421875 -39.515625 C 5.585938 -39.671875 5.785156 -39.75 6.015625 -39.75 L 18.453125 -39.75 C 21.484375 -39.75 23.878906 -38.78125 25.640625 -36.84375 C 27.398438 -34.914062 28.28125 -32.363281 28.28125 -29.1875 C 28.28125 -28.28125 28.238281 -27.578125 28.15625 -27.078125 C 27.894531 -25.003906 27.3125 -23.140625 26.40625 -21.484375 C 25.5 -19.835938 24.328125 -18.503906 22.890625 -17.484375 C 22.691406 -17.367188 22.632812 -17.238281 22.71875 -17.09375 L 25.15625 -0.96875 L 25.15625 -0.734375 C 25.15625 -0.503906 25.078125 -0.320312 24.921875 -0.1875 C 24.773438 -0.0625 24.585938 0 24.359375 0 Z M 14.703125 -30.609375 C 14.515625 -30.609375 14.421875 -30.515625 14.421875 -30.328125 L 13.578125 -23.671875 C 13.578125 -23.484375 13.671875 -23.390625 13.859375 -23.390625 L 14.59375 -23.390625 C 15.5 -23.390625 16.265625 -23.785156 16.890625 -24.578125 C 17.515625 -25.378906 17.828125 -26.476562 17.828125 -27.875 C 17.828125 -28.75 17.617188 -29.421875 17.203125 -29.890625 C 16.785156 -30.367188 16.21875 -30.609375 15.5 -30.609375 Z M 14.703125 -30.609375 "/></g></g></g></svg>