<svg xmlns="http://www.w3.org/2000/svg" xmlns:xlink="http://www.w3.org/1999/xlink" width="400" zoomAndPan="magnify" viewBox="0 0 300 48.75" height="65" preserveAspectRatio="xMidYMid meet" version="1.0"><defs><g/></defs><g fill="#ffffff" fill-opacity="1"><g transform="translate(0.765305, 24.023116)"><g><path d="M 17.09375 -6.359375 C 17.09375 -5.335938 16.914062 -4.40625 16.5625 -3.5625 C 16.21875 -2.71875 15.710938 -2 15.046875 -1.40625 C 14.378906 -0.8125 13.570312 -0.351562 12.625 -0.03125 C 11.6875 0.289062 10.617188 0.453125 9.421875 0.453125 C 8.234375 0.453125 7.164062 0.289062 6.21875 -0.03125 C 5.269531 -0.351562 4.460938 -0.8125 3.796875 -1.40625 C 3.140625 -2 2.632812 -2.71875 2.28125 -3.5625 C 1.9375 -4.40625 1.765625 -5.335938 1.765625 -6.359375 L 1.765625 -17.203125 C 1.972656 -17.242188 2.300781 -17.296875 2.75 -17.359375 C 3.207031 -17.421875 3.644531 -17.453125 4.0625 -17.453125 C 4.5 -17.453125 4.878906 -17.421875 5.203125 -17.359375 C 5.535156 -17.296875 5.816406 -17.175781 6.046875 -17 C 6.273438 -16.832031 6.445312 -16.597656 6.5625 -16.296875 C 6.675781 -15.992188 6.734375 -15.597656 6.734375 -15.109375 L 6.734375 -6.4375 C 6.734375 -5.53125 6.984375 -4.820312 7.484375 -4.3125 C 7.984375 -3.800781 8.628906 -3.546875 9.421875 -3.546875 C 10.234375 -3.546875 10.882812 -3.800781 11.375 -4.3125 C 11.875 -4.820312 12.125 -5.53125 12.125 -6.4375 L 12.125 -17.203125 C 12.332031 -17.242188 12.660156 -17.296875 13.109375 -17.359375 C 13.566406 -17.421875 14.003906 -17.453125 14.421875 -17.453125 C 14.859375 -17.453125 15.238281 -17.421875 15.5625 -17.359375 C 15.894531 -17.296875 16.175781 -17.175781 16.40625 -17 C 16.632812 -16.832031 16.804688 -16.597656 16.921875 -16.296875 C 17.035156 -15.992188 17.09375 -15.597656 17.09375 -15.109375 Z M 17.09375 -6.359375 "/></g></g></g><g fill="#ffffff" fill-opacity="1"><g transform="translate(19.60828, 24.023116)"><g><path d="M 4.484375 0.078125 C 3.671875 0.078125 3.023438 -0.15625 2.546875 -0.625 C 2.078125 -1.09375 1.84375 -1.738281 1.84375 -2.5625 L 1.84375 -17.234375 C 2.050781 -17.273438 2.378906 -17.328125 2.828125 -17.390625 C 3.285156 -17.453125 3.722656 -17.484375 4.140625 -17.484375 C 4.578125 -17.484375 4.960938 -17.453125 5.296875 -17.390625 C 5.628906 -17.328125 5.90625 -17.207031 6.125 -17.03125 C 6.351562 -16.863281 6.523438 -16.628906 6.640625 -16.328125 C 6.753906 -16.023438 6.8125 -15.625 6.8125 -15.125 L 6.8125 -3.921875 L 13.3125 -3.921875 C 13.445312 -3.710938 13.570312 -3.429688 13.6875 -3.078125 C 13.800781 -2.734375 13.859375 -2.367188 13.859375 -1.984375 C 13.859375 -1.234375 13.695312 -0.703125 13.375 -0.390625 C 13.050781 -0.078125 12.625 0.078125 12.09375 0.078125 Z M 4.484375 0.078125 "/></g></g></g><g fill="#ffffff" fill-opacity="1"><g transform="translate(34.166177, 24.023116)"><g><path d="M 1.046875 -13.234375 C 0.921875 -13.441406 0.800781 -13.722656 0.6875 -14.078125 C 0.570312 -14.441406 0.515625 -14.820312 0.515625 -15.21875 C 0.515625 -15.957031 0.675781 -16.488281 1 -16.8125 C 1.332031 -17.132812 1.765625 -17.296875 2.296875 -17.296875 L 14.671875 -17.296875 C 14.804688 -17.085938 14.929688 -16.800781 15.046875 -16.4375 C 15.160156 -16.082031 15.21875 -15.703125 15.21875 -15.296875 C 15.21875 -14.566406 15.050781 -14.039062 14.71875 -13.71875 C 14.382812 -13.394531 13.953125 -13.234375 13.421875 -13.234375 L 10.28125 -13.234375 L 10.28125 -0.109375 C 10.070312 -0.0546875 9.742188 -0.00390625 9.296875 0.046875 C 8.847656 0.109375 8.410156 0.140625 7.984375 0.140625 C 7.546875 0.140625 7.160156 0.101562 6.828125 0.03125 C 6.492188 -0.03125 6.210938 -0.144531 5.984375 -0.3125 C 5.765625 -0.476562 5.597656 -0.710938 5.484375 -1.015625 C 5.367188 -1.316406 5.3125 -1.71875 5.3125 -2.21875 L 5.3125 -13.234375 Z M 1.046875 -13.234375 "/></g></g></g><g fill="#ffffff" fill-opacity="1"><g transform="translate(49.944336, 24.023116)"><g><path d="M 6.78125 -5.5625 L 6.78125 -0.109375 C 6.570312 -0.0546875 6.242188 -0.00390625 5.796875 0.046875 C 5.359375 0.109375 4.921875 0.140625 4.484375 0.140625 C 4.046875 0.140625 3.660156 0.101562 3.328125 0.03125 C 3.003906 -0.03125 2.734375 -0.144531 2.515625 -0.3125 C 2.296875 -0.476562 2.128906 -0.710938 2.015625 -1.015625 C 1.898438 -1.316406 1.84375 -1.71875 1.84375 -2.21875 L 1.84375 -15.59375 C 1.84375 -15.988281 1.953125 -16.289062 2.171875 -16.5 C 2.390625 -16.71875 2.6875 -16.894531 3.0625 -17.03125 C 3.707031 -17.257812 4.457031 -17.425781 5.3125 -17.53125 C 6.164062 -17.632812 7.070312 -17.6875 8.03125 -17.6875 C 10.644531 -17.6875 12.613281 -17.132812 13.9375 -16.03125 C 15.257812 -14.9375 15.921875 -13.453125 15.921875 -11.578125 C 15.921875 -10.410156 15.617188 -9.410156 15.015625 -8.578125 C 14.410156 -7.742188 13.691406 -7.097656 12.859375 -6.640625 C 13.546875 -5.710938 14.21875 -4.84375 14.875 -4.03125 C 15.539062 -3.21875 16.0625 -2.476562 16.4375 -1.8125 C 16.25 -1.15625 15.90625 -0.648438 15.40625 -0.296875 C 14.90625 0.0546875 14.34375 0.234375 13.71875 0.234375 C 13.300781 0.234375 12.9375 0.179688 12.625 0.078125 C 12.320312 -0.015625 12.054688 -0.144531 11.828125 -0.3125 C 11.609375 -0.476562 11.40625 -0.6875 11.21875 -0.9375 C 11.03125 -1.1875 10.847656 -1.453125 10.671875 -1.734375 L 8.296875 -5.5625 Z M 8.578125 -9.34375 C 9.296875 -9.34375 9.863281 -9.523438 10.28125 -9.890625 C 10.695312 -10.265625 10.90625 -10.8125 10.90625 -11.53125 C 10.90625 -12.25 10.671875 -12.789062 10.203125 -13.15625 C 9.742188 -13.53125 9.007812 -13.71875 8 -13.71875 C 7.71875 -13.71875 7.488281 -13.707031 7.3125 -13.6875 C 7.144531 -13.664062 6.957031 -13.632812 6.75 -13.59375 L 6.75 -9.34375 Z M 8.578125 -9.34375 "/></g></g></g><g fill="#ffffff" fill-opacity="1"><g transform="translate(67.226524, 24.023116)"><g><path d="M 5.5 -16.6875 C 5.820312 -16.882812 6.3125 -17.066406 6.96875 -17.234375 C 7.625 -17.398438 8.28125 -17.484375 8.9375 -17.484375 C 9.882812 -17.484375 10.722656 -17.347656 11.453125 -17.078125 C 12.179688 -16.804688 12.648438 -16.375 12.859375 -15.78125 C 13.203125 -14.800781 13.570312 -13.65625 13.96875 -12.34375 C 14.363281 -11.039062 14.757812 -9.691406 15.15625 -8.296875 C 15.550781 -6.910156 15.9375 -5.539062 16.3125 -4.1875 C 16.695312 -2.832031 17.03125 -1.632812 17.3125 -0.59375 C 17.09375 -0.332031 16.753906 -0.125 16.296875 0.03125 C 15.835938 0.195312 15.296875 0.28125 14.671875 0.28125 C 14.222656 0.28125 13.84375 0.242188 13.53125 0.171875 C 13.21875 0.0976562 12.960938 -0.0078125 12.765625 -0.15625 C 12.566406 -0.3125 12.40625 -0.515625 12.28125 -0.765625 C 12.15625 -1.015625 12.046875 -1.300781 11.953125 -1.625 L 11.4375 -3.578125 L 6.296875 -3.578125 C 6.148438 -3.003906 6 -2.414062 5.84375 -1.8125 C 5.695312 -1.207031 5.546875 -0.625 5.390625 -0.0625 C 5.128906 0.03125 4.847656 0.109375 4.546875 0.171875 C 4.253906 0.242188 3.898438 0.28125 3.484375 0.28125 C 2.523438 0.28125 1.8125 0.117188 1.34375 -0.203125 C 0.882812 -0.535156 0.65625 -1 0.65625 -1.59375 C 0.65625 -1.851562 0.691406 -2.113281 0.765625 -2.375 C 0.835938 -2.644531 0.921875 -2.960938 1.015625 -3.328125 C 1.148438 -3.835938 1.335938 -4.46875 1.578125 -5.21875 C 1.816406 -5.976562 2.078125 -6.796875 2.359375 -7.671875 C 2.640625 -8.554688 2.941406 -9.460938 3.265625 -10.390625 C 3.585938 -11.316406 3.890625 -12.191406 4.171875 -13.015625 C 4.453125 -13.835938 4.710938 -14.570312 4.953125 -15.21875 C 5.191406 -15.863281 5.375 -16.351562 5.5 -16.6875 Z M 8.921875 -13.03125 C 8.648438 -12.238281 8.347656 -11.351562 8.015625 -10.375 C 7.691406 -9.40625 7.394531 -8.414062 7.125 -7.40625 L 10.640625 -7.40625 C 10.378906 -8.425781 10.109375 -9.425781 9.828125 -10.40625 C 9.554688 -11.382812 9.304688 -12.257812 9.078125 -13.03125 Z M 8.921875 -13.03125 "/></g></g></g><g fill="#ffffff" fill-opacity="1"><g transform="translate(85.01952, 24.023116)"><g><path d="M 1.390625 -5.28125 C 1.253906 -5.488281 1.128906 -5.757812 1.015625 -6.09375 C 0.910156 -6.4375 0.859375 -6.800781 0.859375 -7.1875 C 0.859375 -7.882812 1.015625 -8.390625 1.328125 -8.703125 C 1.648438 -9.015625 2.066406 -9.171875 2.578125 -9.171875 L 8.65625 -9.171875 C 8.769531 -8.960938 8.890625 -8.6875 9.015625 -8.34375 C 9.140625 -8 9.203125 -7.640625 9.203125 -7.265625 C 9.203125 -6.566406 9.039062 -6.0625 8.71875 -5.75 C 8.394531 -5.4375 7.976562 -5.28125 7.46875 -5.28125 Z M 1.390625 -5.28125 "/></g></g></g><g fill="#ffffff" fill-opacity="1"><g transform="translate(95.06532, 24.023116)"><g><path d="M 13.9375 -17.203125 C 14.070312 -16.992188 14.191406 -16.710938 14.296875 -16.359375 C 14.398438 -16.015625 14.453125 -15.65625 14.453125 -15.28125 C 14.453125 -14.539062 14.296875 -14.015625 13.984375 -13.703125 C 13.671875 -13.390625 13.25 -13.234375 12.71875 -13.234375 L 6.75 -13.234375 L 6.75 -10.015625 L 12.96875 -10.015625 C 13.125 -9.804688 13.253906 -9.53125 13.359375 -9.1875 C 13.460938 -8.851562 13.515625 -8.5 13.515625 -8.125 C 13.515625 -7.40625 13.359375 -6.890625 13.046875 -6.578125 C 12.734375 -6.265625 12.3125 -6.109375 11.78125 -6.109375 L 6.8125 -6.109375 L 6.8125 -0.109375 C 6.601562 -0.0546875 6.273438 -0.00390625 5.828125 0.046875 C 5.390625 0.109375 4.953125 0.140625 4.515625 0.140625 C 4.078125 0.140625 3.691406 0.101562 3.359375 0.03125 C 3.035156 -0.03125 2.757812 -0.144531 2.53125 -0.3125 C 2.300781 -0.476562 2.128906 -0.710938 2.015625 -1.015625 C 1.898438 -1.316406 1.84375 -1.71875 1.84375 -2.21875 L 1.84375 -14.5625 C 1.84375 -15.375 2.078125 -16.015625 2.546875 -16.484375 C 3.023438 -16.960938 3.671875 -17.203125 4.484375 -17.203125 Z M 13.9375 -17.203125 "/></g></g></g><g fill="#ffffff" fill-opacity="1"><g transform="translate(110.134025, 24.023116)"><g><path d="M 6.78125 -5.5625 L 6.78125 -0.109375 C 6.570312 -0.0546875 6.242188 -0.00390625 5.796875 0.046875 C 5.359375 0.109375 4.921875 0.140625 4.484375 0.140625 C 4.046875 0.140625 3.660156 0.101562 3.328125 0.03125 C 3.003906 -0.03125 2.734375 -0.144531 2.515625 -0.3125 C 2.296875 -0.476562 2.128906 -0.710938 2.015625 -1.015625 C 1.898438 -1.316406 1.84375 -1.71875 1.84375 -2.21875 L 1.84375 -15.59375 C 1.84375 -15.988281 1.953125 -16.289062 2.171875 -16.5 C 2.390625 -16.71875 2.6875 -16.894531 3.0625 -17.03125 C 3.707031 -17.257812 4.457031 -17.425781 5.3125 -17.53125 C 6.164062 -17.632812 7.070312 -17.6875 8.03125 -17.6875 C 10.644531 -17.6875 12.613281 -17.132812 13.9375 -16.03125 C 15.257812 -14.9375 15.921875 -13.453125 15.921875 -11.578125 C 15.921875 -10.410156 15.617188 -9.410156 15.015625 -8.578125 C 14.410156 -7.742188 13.691406 -7.097656 12.859375 -6.640625 C 13.546875 -5.710938 14.21875 -4.84375 14.875 -4.03125 C 15.539062 -3.21875 16.0625 -2.476562 16.4375 -1.8125 C 16.25 -1.15625 15.90625 -0.648438 15.40625 -0.296875 C 14.90625 0.0546875 14.34375 0.234375 13.71875 0.234375 C 13.300781 0.234375 12.9375 0.179688 12.625 0.078125 C 12.320312 -0.015625 12.054688 -0.144531 11.828125 -0.3125 C 11.609375 -0.476562 11.40625 -0.6875 11.21875 -0.9375 C 11.03125 -1.1875 10.847656 -1.453125 10.671875 -1.734375 L 8.296875 -5.5625 Z M 8.578125 -9.34375 C 9.296875 -9.34375 9.863281 -9.523438 10.28125 -9.890625 C 10.695312 -10.265625 10.90625 -10.8125 10.90625 -11.53125 C 10.90625 -12.25 10.671875 -12.789062 10.203125 -13.15625 C 9.742188 -13.53125 9.007812 -13.71875 8 -13.71875 C 7.71875 -13.71875 7.488281 -13.707031 7.3125 -13.6875 C 7.144531 -13.664062 6.957031 -13.632812 6.75 -13.59375 L 6.75 -9.34375 Z M 8.578125 -9.34375 "/></g></g></g><g fill="#ffffff" fill-opacity="1"><g transform="translate(127.416213, 24.023116)"><g><path d="M 1.84375 -14.5625 C 1.84375 -15.375 2.078125 -16.015625 2.546875 -16.484375 C 3.023438 -16.960938 3.671875 -17.203125 4.484375 -17.203125 L 13.859375 -17.203125 C 13.984375 -16.992188 14.097656 -16.71875 14.203125 -16.375 C 14.304688 -16.039062 14.359375 -15.679688 14.359375 -15.296875 C 14.359375 -14.578125 14.203125 -14.066406 13.890625 -13.765625 C 13.578125 -13.460938 13.164062 -13.3125 12.65625 -13.3125 L 6.671875 -13.3125 L 6.671875 -10.671875 L 13.0625 -10.671875 C 13.195312 -10.460938 13.316406 -10.191406 13.421875 -9.859375 C 13.523438 -9.535156 13.578125 -9.179688 13.578125 -8.796875 C 13.578125 -8.078125 13.421875 -7.566406 13.109375 -7.265625 C 12.804688 -6.960938 12.398438 -6.8125 11.890625 -6.8125 L 6.671875 -6.8125 L 6.671875 -3.828125 L 13.96875 -3.828125 C 14.101562 -3.617188 14.222656 -3.34375 14.328125 -3 C 14.429688 -2.664062 14.484375 -2.3125 14.484375 -1.9375 C 14.484375 -1.21875 14.328125 -0.703125 14.015625 -0.390625 C 13.703125 -0.078125 13.289062 0.078125 12.78125 0.078125 L 4.484375 0.078125 C 3.671875 0.078125 3.023438 -0.15625 2.546875 -0.625 C 2.078125 -1.09375 1.84375 -1.738281 1.84375 -2.5625 Z M 1.84375 -14.5625 "/></g></g></g><g fill="#ffffff" fill-opacity="1"><g transform="translate(142.967341, 24.023116)"><g><path d="M 6.734375 -6.84375 C 5.898438 -7.125 5.140625 -7.410156 4.453125 -7.703125 C 3.773438 -7.992188 3.1875 -8.347656 2.6875 -8.765625 C 2.195312 -9.179688 1.816406 -9.675781 1.546875 -10.25 C 1.273438 -10.832031 1.140625 -11.539062 1.140625 -12.375 C 1.140625 -13.988281 1.757812 -15.273438 3 -16.234375 C 4.238281 -17.203125 5.972656 -17.6875 8.203125 -17.6875 C 9.015625 -17.6875 9.769531 -17.628906 10.46875 -17.515625 C 11.175781 -17.398438 11.78125 -17.222656 12.28125 -16.984375 C 12.78125 -16.753906 13.171875 -16.453125 13.453125 -16.078125 C 13.742188 -15.710938 13.890625 -15.285156 13.890625 -14.796875 C 13.890625 -14.296875 13.773438 -13.867188 13.546875 -13.515625 C 13.316406 -13.171875 13.039062 -12.878906 12.71875 -12.640625 C 12.300781 -12.898438 11.742188 -13.128906 11.046875 -13.328125 C 10.347656 -13.523438 9.582031 -13.625 8.75 -13.625 C 7.894531 -13.625 7.269531 -13.503906 6.875 -13.265625 C 6.476562 -13.035156 6.28125 -12.738281 6.28125 -12.375 C 6.28125 -12.09375 6.398438 -11.859375 6.640625 -11.671875 C 6.890625 -11.492188 7.257812 -11.332031 7.75 -11.1875 L 9.25 -10.703125 C 11.03125 -10.128906 12.398438 -9.40625 13.359375 -8.53125 C 14.316406 -7.65625 14.796875 -6.457031 14.796875 -4.9375 C 14.796875 -3.332031 14.160156 -2.03125 12.890625 -1.03125 C 11.617188 -0.0390625 9.753906 0.453125 7.296875 0.453125 C 6.421875 0.453125 5.609375 0.378906 4.859375 0.234375 C 4.117188 0.0976562 3.46875 -0.101562 2.90625 -0.375 C 2.351562 -0.65625 1.921875 -1 1.609375 -1.40625 C 1.296875 -1.8125 1.140625 -2.28125 1.140625 -2.8125 C 1.140625 -3.363281 1.296875 -3.832031 1.609375 -4.21875 C 1.929688 -4.601562 2.285156 -4.898438 2.671875 -5.109375 C 3.203125 -4.691406 3.847656 -4.332031 4.609375 -4.03125 C 5.378906 -3.726562 6.21875 -3.578125 7.125 -3.578125 C 8.050781 -3.578125 8.703125 -3.71875 9.078125 -4 C 9.460938 -4.28125 9.65625 -4.613281 9.65625 -5 C 9.65625 -5.375 9.503906 -5.660156 9.203125 -5.859375 C 8.898438 -6.054688 8.472656 -6.25 7.921875 -6.4375 Z M 6.734375 -6.84375 "/></g></g></g><g fill="#ffffff" fill-opacity="1"><g transform="translate(158.6036, 24.023116)"><g><path d="M 17.234375 -0.109375 C 17.023438 -0.0546875 16.695312 -0.00390625 16.25 0.046875 C 15.8125 0.109375 15.375 0.140625 14.9375 0.140625 C 14.5 0.140625 14.113281 0.101562 13.78125 0.03125 C 13.445312 -0.03125 13.164062 -0.144531 12.9375 -0.3125 C 12.71875 -0.476562 12.550781 -0.710938 12.4375 -1.015625 C 12.320312 -1.316406 12.265625 -1.71875 12.265625 -2.21875 L 12.265625 -6.640625 L 6.8125 -6.640625 L 6.8125 -0.109375 C 6.601562 -0.0546875 6.273438 -0.00390625 5.828125 0.046875 C 5.390625 0.109375 4.953125 0.140625 4.515625 0.140625 C 4.078125 0.140625 3.691406 0.101562 3.359375 0.03125 C 3.035156 -0.03125 2.757812 -0.144531 2.53125 -0.3125 C 2.300781 -0.476562 2.128906 -0.710938 2.015625 -1.015625 C 1.898438 -1.316406 1.84375 -1.71875 1.84375 -2.21875 L 1.84375 -17.203125 C 2.050781 -17.242188 2.378906 -17.296875 2.828125 -17.359375 C 3.285156 -17.421875 3.722656 -17.453125 4.140625 -17.453125 C 4.578125 -17.453125 4.960938 -17.421875 5.296875 -17.359375 C 5.628906 -17.296875 5.90625 -17.175781 6.125 -17 C 6.351562 -16.832031 6.523438 -16.597656 6.640625 -16.296875 C 6.753906 -15.992188 6.8125 -15.597656 6.8125 -15.109375 L 6.8125 -10.5625 L 12.265625 -10.5625 L 12.265625 -17.203125 C 12.472656 -17.242188 12.800781 -17.296875 13.25 -17.359375 C 13.707031 -17.421875 14.144531 -17.453125 14.5625 -17.453125 C 15 -17.453125 15.382812 -17.421875 15.71875 -17.359375 C 16.050781 -17.296875 16.328125 -17.175781 16.546875 -17 C 16.773438 -16.832031 16.945312 -16.597656 17.0625 -16.296875 C 17.175781 -15.992188 17.234375 -15.597656 17.234375 -15.109375 Z M 17.234375 -0.109375 "/></g></g></g><g fill="#ffffff" fill-opacity="1"><g transform="translate(177.66671, 24.023116)"><g/></g></g><g fill="#ffde59" fill-opacity="1"><g transform="translate(0.765305, 45.690301)"><g><path d="M 4.90625 -6.3125 L 3.046875 -6.3125 L 3.046875 0 L 2.15625 0 L 2.15625 -6.3125 L 0.296875 -6.3125 L 0.296875 -7.09375 L 4.90625 -7.09375 Z M 4.90625 -6.3125 "/></g></g></g><g fill="#ffde59" fill-opacity="1"><g transform="translate(8.169598, 45.690301)"><g><path d="M 5.40625 0 L 4.5 0 L 4.5 -3.28125 L 1.65625 -3.28125 L 1.65625 0 L 0.765625 0 L 0.765625 -7.09375 L 1.65625 -7.09375 L 1.65625 -4.046875 L 4.5 -4.046875 L 4.5 -7.09375 L 5.40625 -7.09375 Z M 5.40625 0 "/></g></g></g><g fill="#ffde59" fill-opacity="1"><g transform="translate(16.566839, 45.690301)"><g><path d="M 4.15625 -3.28125 L 1.65625 -3.28125 L 1.65625 -0.765625 L 4.578125 -0.765625 L 4.578125 0 L 0.765625 0 L 0.765625 -7.09375 L 4.53125 -7.09375 L 4.53125 -6.3125 L 1.65625 -6.3125 L 1.65625 -4.046875 L 4.15625 -4.046875 Z M 4.15625 -3.28125 "/></g></g></g><g fill="#ffde59" fill-opacity="1"><g transform="translate(23.732636, 45.690301)"><g/></g></g><g fill="#ffde59" fill-opacity="1"><g transform="translate(28.231105, 45.690301)"><g><path d="M 4.046875 -3.125 L 1.65625 -3.125 L 1.65625 0 L 0.765625 0 L 0.765625 -7.09375 L 4.453125 -7.09375 L 4.453125 -6.3125 L 1.65625 -6.3125 L 1.65625 -3.890625 L 4.046875 -3.890625 Z M 4.046875 -3.125 "/></g></g></g><g fill="#ffde59" fill-opacity="1"><g transform="translate(35.236273, 45.690301)"><g><path d="M 2.90625 -2.859375 L 1.65625 -2.859375 L 1.65625 0 L 0.765625 0 L 0.765625 -7.09375 L 2.75 -7.09375 C 3.445312 -7.09375 3.972656 -6.910156 4.328125 -6.546875 C 4.679688 -6.179688 4.859375 -5.648438 4.859375 -4.953125 C 4.859375 -4.515625 4.757812 -4.128906 4.5625 -3.796875 C 4.375 -3.472656 4.101562 -3.234375 3.75 -3.078125 L 5.125 -0.0625 L 5.125 0 L 4.171875 0 Z M 1.65625 -3.625 L 2.734375 -3.625 C 3.109375 -3.625 3.40625 -3.742188 3.625 -3.984375 C 3.851562 -4.234375 3.96875 -4.554688 3.96875 -4.953125 C 3.96875 -5.859375 3.554688 -6.3125 2.734375 -6.3125 L 1.65625 -6.3125 Z M 1.65625 -3.625 "/></g></g></g><g fill="#ffde59" fill-opacity="1"><g transform="translate(42.742787, 45.690301)"><g><path d="M 4.15625 -3.28125 L 1.65625 -3.28125 L 1.65625 -0.765625 L 4.578125 -0.765625 L 4.578125 0 L 0.765625 0 L 0.765625 -7.09375 L 4.53125 -7.09375 L 4.53125 -6.3125 L 1.65625 -6.3125 L 1.65625 -4.046875 L 4.15625 -4.046875 Z M 4.15625 -3.28125 "/></g></g></g><g fill="#ffde59" fill-opacity="1"><g transform="translate(49.908584, 45.690301)"><g><path d="M 3.859375 -1.796875 C 3.859375 -2.148438 3.757812 -2.421875 3.5625 -2.609375 C 3.375 -2.796875 3.03125 -2.976562 2.53125 -3.15625 C 2.03125 -3.332031 1.648438 -3.519531 1.390625 -3.71875 C 1.128906 -3.914062 0.929688 -4.140625 0.796875 -4.390625 C 0.660156 -4.640625 0.59375 -4.925781 0.59375 -5.25 C 0.59375 -5.8125 0.78125 -6.273438 1.15625 -6.640625 C 1.53125 -7.003906 2.023438 -7.1875 2.640625 -7.1875 C 3.046875 -7.1875 3.410156 -7.09375 3.734375 -6.90625 C 4.066406 -6.71875 4.316406 -6.457031 4.484375 -6.125 C 4.660156 -5.789062 4.75 -5.425781 4.75 -5.03125 L 3.859375 -5.03125 C 3.859375 -5.46875 3.753906 -5.804688 3.546875 -6.046875 C 3.335938 -6.296875 3.035156 -6.421875 2.640625 -6.421875 C 2.273438 -6.421875 1.992188 -6.316406 1.796875 -6.109375 C 1.597656 -5.910156 1.5 -5.628906 1.5 -5.265625 C 1.5 -4.960938 1.601562 -4.710938 1.8125 -4.515625 C 2.03125 -4.316406 2.363281 -4.140625 2.8125 -3.984375 C 3.507812 -3.742188 4.007812 -3.457031 4.3125 -3.125 C 4.613281 -2.789062 4.765625 -2.347656 4.765625 -1.796875 C 4.765625 -1.222656 4.578125 -0.765625 4.203125 -0.421875 C 3.828125 -0.078125 3.316406 0.09375 2.671875 0.09375 C 2.265625 0.09375 1.882812 0.00390625 1.53125 -0.171875 C 1.1875 -0.347656 0.910156 -0.597656 0.703125 -0.921875 C 0.503906 -1.253906 0.40625 -1.628906 0.40625 -2.046875 L 1.3125 -2.046875 C 1.3125 -1.609375 1.429688 -1.269531 1.671875 -1.03125 C 1.921875 -0.789062 2.253906 -0.671875 2.671875 -0.671875 C 3.066406 -0.671875 3.363281 -0.769531 3.5625 -0.96875 C 3.757812 -1.164062 3.859375 -1.441406 3.859375 -1.796875 Z M 3.859375 -1.796875 "/></g></g></g><g fill="#ffde59" fill-opacity="1"><g transform="translate(57.288547, 45.690301)"><g><path d="M 5.40625 0 L 4.5 0 L 4.5 -3.28125 L 1.65625 -3.28125 L 1.65625 0 L 0.765625 0 L 0.765625 -7.09375 L 1.65625 -7.09375 L 1.65625 -4.046875 L 4.5 -4.046875 L 4.5 -7.09375 L 5.40625 -7.09375 Z M 5.40625 0 "/></g></g></g><g fill="#ffde59" fill-opacity="1"><g transform="translate(65.685788, 45.690301)"><g><path d="M 4.15625 -3.28125 L 1.65625 -3.28125 L 1.65625 -0.765625 L 4.578125 -0.765625 L 4.578125 0 L 0.765625 0 L 0.765625 -7.09375 L 4.53125 -7.09375 L 4.53125 -6.3125 L 1.65625 -6.3125 L 1.65625 -4.046875 L 4.15625 -4.046875 Z M 4.15625 -3.28125 "/></g></g></g><g fill="#ffde59" fill-opacity="1"><g transform="translate(72.851585, 45.690301)"><g><path d="M 3.859375 -1.796875 C 3.859375 -2.148438 3.757812 -2.421875 3.5625 -2.609375 C 3.375 -2.796875 3.03125 -2.976562 2.53125 -3.15625 C 2.03125 -3.332031 1.648438 -3.519531 1.390625 -3.71875 C 1.128906 -3.914062 0.929688 -4.140625 0.796875 -4.390625 C 0.660156 -4.640625 0.59375 -4.925781 0.59375 -5.25 C 0.59375 -5.8125 0.78125 -6.273438 1.15625 -6.640625 C 1.53125 -7.003906 2.023438 -7.1875 2.640625 -7.1875 C 3.046875 -7.1875 3.410156 -7.09375 3.734375 -6.90625 C 4.066406 -6.71875 4.316406 -6.457031 4.484375 -6.125 C 4.660156 -5.789062 4.75 -5.425781 4.75 -5.03125 L 3.859375 -5.03125 C 3.859375 -5.46875 3.753906 -5.804688 3.546875 -6.046875 C 3.335938 -6.296875 3.035156 -6.421875 2.640625 -6.421875 C 2.273438 -6.421875 1.992188 -6.316406 1.796875 -6.109375 C 1.597656 -5.910156 1.5 -5.628906 1.5 -5.265625 C 1.5 -4.960938 1.601562 -4.710938 1.8125 -4.515625 C 2.03125 -4.316406 2.363281 -4.140625 2.8125 -3.984375 C 3.507812 -3.742188 4.007812 -3.457031 4.3125 -3.125 C 4.613281 -2.789062 4.765625 -2.347656 4.765625 -1.796875 C 4.765625 -1.222656 4.578125 -0.765625 4.203125 -0.421875 C 3.828125 -0.078125 3.316406 0.09375 2.671875 0.09375 C 2.265625 0.09375 1.882812 0.00390625 1.53125 -0.171875 C 1.1875 -0.347656 0.910156 -0.597656 0.703125 -0.921875 C 0.503906 -1.253906 0.40625 -1.628906 0.40625 -2.046875 L 1.3125 -2.046875 C 1.3125 -1.609375 1.429688 -1.269531 1.671875 -1.03125 C 1.921875 -0.789062 2.253906 -0.671875 2.671875 -0.671875 C 3.066406 -0.671875 3.363281 -0.769531 3.5625 -0.96875 C 3.757812 -1.164062 3.859375 -1.441406 3.859375 -1.796875 Z M 3.859375 -1.796875 "/></g></g></g><g fill="#ffde59" fill-opacity="1"><g transform="translate(80.231547, 45.690301)"><g><path d="M 4.90625 -6.3125 L 3.046875 -6.3125 L 3.046875 0 L 2.15625 0 L 2.15625 -6.3125 L 0.296875 -6.3125 L 0.296875 -7.09375 L 4.90625 -7.09375 Z M 4.90625 -6.3125 "/></g></g></g><g fill="#ffde59" fill-opacity="1"><g transform="translate(87.635841, 45.690301)"><g/></g></g><g fill="#ffde59" fill-opacity="1"><g transform="translate(92.134309, 45.690301)"><g><path d="M 2.609375 -3.53125 L 4.0625 -7.09375 L 5.0625 -7.09375 L 3.046875 -2.640625 L 3.046875 0 L 2.15625 0 L 2.15625 -2.640625 L 0.140625 -7.09375 L 1.15625 -7.09375 Z M 2.609375 -3.53125 "/></g></g></g><g fill="#ffde59" fill-opacity="1"><g transform="translate(99.577542, 45.690301)"><g><path d="M 5.375 -2.921875 C 5.375 -1.953125 5.164062 -1.207031 4.75 -0.6875 C 4.34375 -0.164062 3.757812 0.09375 3 0.09375 C 2.269531 0.09375 1.691406 -0.15625 1.265625 -0.65625 C 0.835938 -1.164062 0.617188 -1.882812 0.609375 -2.8125 L 0.609375 -4.15625 C 0.609375 -5.101562 0.816406 -5.84375 1.234375 -6.375 C 1.648438 -6.914062 2.234375 -7.1875 2.984375 -7.1875 C 3.734375 -7.1875 4.316406 -6.925781 4.734375 -6.40625 C 5.148438 -5.894531 5.363281 -5.160156 5.375 -4.203125 Z M 4.484375 -4.15625 C 4.484375 -4.90625 4.359375 -5.460938 4.109375 -5.828125 C 3.867188 -6.191406 3.492188 -6.375 2.984375 -6.375 C 2.492188 -6.375 2.125 -6.1875 1.875 -5.8125 C 1.625 -5.445312 1.5 -4.90625 1.5 -4.1875 L 1.5 -2.921875 C 1.5 -2.191406 1.625 -1.640625 1.875 -1.265625 C 2.125 -0.890625 2.5 -0.703125 3 -0.703125 C 3.5 -0.703125 3.867188 -0.875 4.109375 -1.21875 C 4.347656 -1.570312 4.472656 -2.109375 4.484375 -2.828125 Z M 4.484375 -4.15625 "/></g></g></g><g fill="#ffde59" fill-opacity="1"><g transform="translate(107.780087, 45.690301)"><g><path d="M 4.984375 -7.09375 L 4.984375 -2.046875 C 4.984375 -1.378906 4.789062 -0.851562 4.40625 -0.46875 C 4.019531 -0.09375 3.484375 0.09375 2.796875 0.09375 C 2.097656 0.09375 1.5625 -0.0859375 1.1875 -0.453125 C 0.820312 -0.828125 0.632812 -1.359375 0.625 -2.046875 L 0.625 -7.09375 L 1.515625 -7.09375 L 1.515625 -2.078125 C 1.515625 -1.609375 1.613281 -1.253906 1.8125 -1.015625 C 2.019531 -0.773438 2.347656 -0.65625 2.796875 -0.65625 C 3.253906 -0.65625 3.582031 -0.773438 3.78125 -1.015625 C 3.988281 -1.253906 4.09375 -1.609375 4.09375 -2.078125 L 4.09375 -7.09375 Z M 4.984375 -7.09375 "/></g></g></g><g fill="#ffde59" fill-opacity="1"><g transform="translate(115.593241, 45.690301)"><g/></g></g><g fill="#ffde59" fill-opacity="1"><g transform="translate(120.09171, 45.690301)"><g><path d="M 5.203125 -2.25 C 5.171875 -1.488281 4.957031 -0.90625 4.5625 -0.5 C 4.175781 -0.101562 3.628906 0.09375 2.921875 0.09375 C 2.210938 0.09375 1.648438 -0.175781 1.234375 -0.71875 C 0.816406 -1.257812 0.609375 -1.988281 0.609375 -2.90625 L 0.609375 -4.203125 C 0.609375 -5.117188 0.820312 -5.84375 1.25 -6.375 C 1.675781 -6.914062 2.265625 -7.1875 3.015625 -7.1875 C 3.691406 -7.1875 4.21875 -6.976562 4.59375 -6.5625 C 4.96875 -6.15625 5.171875 -5.570312 5.203125 -4.8125 L 4.3125 -4.8125 C 4.269531 -5.382812 4.144531 -5.796875 3.9375 -6.046875 C 3.738281 -6.296875 3.429688 -6.421875 3.015625 -6.421875 C 2.523438 -6.421875 2.148438 -6.226562 1.890625 -5.84375 C 1.628906 -5.46875 1.5 -4.914062 1.5 -4.1875 L 1.5 -2.890625 C 1.5 -2.171875 1.617188 -1.617188 1.859375 -1.234375 C 2.109375 -0.847656 2.460938 -0.65625 2.921875 -0.65625 C 3.390625 -0.65625 3.722656 -0.769531 3.921875 -1 C 4.128906 -1.238281 4.257812 -1.65625 4.3125 -2.25 Z M 5.203125 -2.25 "/></g></g></g><g fill="#ffde59" fill-opacity="1"><g transform="translate(127.958411, 45.690301)"><g><path d="M 4.0625 -1.84375 L 1.671875 -1.84375 L 1.125 0 L 0.203125 0 L 2.5 -7.09375 L 3.25 -7.09375 L 5.546875 0 L 4.625 0 Z M 1.90625 -2.625 L 3.84375 -2.625 L 2.875 -5.84375 Z M 1.90625 -2.625 "/></g></g></g><g fill="#ffde59" fill-opacity="1"><g transform="translate(135.917587, 45.690301)"><g><path d="M 5.390625 0 L 4.5 0 L 1.65625 -5.46875 L 1.65625 0 L 0.765625 0 L 0.765625 -7.09375 L 1.65625 -7.09375 L 4.5 -1.59375 L 4.5 -7.09375 L 5.390625 -7.09375 Z M 5.390625 0 "/></g></g></g><g fill="#ffde59" fill-opacity="1"><g transform="translate(144.305093, 45.690301)"><g/></g></g><g fill="#ffde59" fill-opacity="1"><g transform="translate(148.803561, 45.690301)"><g><path d="M 5.203125 -0.875 L 5.046875 -0.6875 C 4.597656 -0.164062 3.941406 0.09375 3.078125 0.09375 C 2.304688 0.09375 1.703125 -0.15625 1.265625 -0.65625 C 0.835938 -1.164062 0.617188 -1.882812 0.609375 -2.8125 L 0.609375 -4.203125 C 0.609375 -5.203125 0.804688 -5.945312 1.203125 -6.4375 C 1.597656 -6.9375 2.191406 -7.1875 2.984375 -7.1875 C 3.660156 -7.1875 4.1875 -7 4.5625 -6.625 C 4.945312 -6.25 5.160156 -5.710938 5.203125 -5.015625 L 4.3125 -5.015625 C 4.269531 -5.453125 4.144531 -5.796875 3.9375 -6.046875 C 3.726562 -6.296875 3.410156 -6.421875 2.984375 -6.421875 C 2.472656 -6.421875 2.097656 -6.253906 1.859375 -5.921875 C 1.628906 -5.585938 1.507812 -5.054688 1.5 -4.328125 L 1.5 -2.875 C 1.5 -2.164062 1.632812 -1.617188 1.90625 -1.234375 C 2.175781 -0.847656 2.566406 -0.65625 3.078125 -0.65625 C 3.554688 -0.65625 3.921875 -0.773438 4.171875 -1.015625 L 4.3125 -1.140625 L 4.3125 -2.765625 L 3.015625 -2.765625 L 3.015625 -3.53125 L 5.203125 -3.53125 Z M 5.203125 -0.875 "/></g></g></g><g fill="#ffde59" fill-opacity="1"><g transform="translate(156.908759, 45.690301)"><g><path d="M 4.15625 -3.28125 L 1.65625 -3.28125 L 1.65625 -0.765625 L 4.578125 -0.765625 L 4.578125 0 L 0.765625 0 L 0.765625 -7.09375 L 4.53125 -7.09375 L 4.53125 -6.3125 L 1.65625 -6.3125 L 1.65625 -4.046875 L 4.15625 -4.046875 Z M 4.15625 -3.28125 "/></g></g></g><g fill="#ffde59" fill-opacity="1"><g transform="translate(164.074556, 45.690301)"><g><path d="M 4.90625 -6.3125 L 3.046875 -6.3125 L 3.046875 0 L 2.15625 0 L 2.15625 -6.3125 L 0.296875 -6.3125 L 0.296875 -7.09375 L 4.90625 -7.09375 Z M 4.90625 -6.3125 "/></g></g></g><g fill="#ffde59" fill-opacity="1"><g transform="translate(171.47885, 45.690301)"><g/></g></g><g fill="#ffde59" fill-opacity="1"><g transform="translate(175.977318, 45.690301)"><g><path d="M 4.0625 -1.84375 L 1.671875 -1.84375 L 1.125 0 L 0.203125 0 L 2.5 -7.09375 L 3.25 -7.09375 L 5.546875 0 L 4.625 0 Z M 1.90625 -2.625 L 3.84375 -2.625 L 2.875 -5.84375 Z M 1.90625 -2.625 "/></g></g></g><g fill="#ffde59" fill-opacity="1"><g transform="translate(183.936494, 45.690301)"><g><path d="M 4.90625 -6.3125 L 3.046875 -6.3125 L 3.046875 0 L 2.15625 0 L 2.15625 -6.3125 L 0.296875 -6.3125 L 0.296875 -7.09375 L 4.90625 -7.09375 Z M 4.90625 -6.3125 "/></g></g></g><g fill="#ffde59" fill-opacity="1"><g transform="translate(191.340788, 45.690301)"><g/></g></g><g fill="#ffde59" fill-opacity="1"><g transform="translate(195.839267, 45.690301)"><g><path d="M 2.609375 -3.53125 L 4.0625 -7.09375 L 5.0625 -7.09375 L 3.046875 -2.640625 L 3.046875 0 L 2.15625 0 L 2.15625 -2.640625 L 0.140625 -7.09375 L 1.15625 -7.09375 Z M 2.609375 -3.53125 "/></g></g></g><g fill="#ffde59" fill-opacity="1"><g transform="translate(203.282489, 45.690301)"><g><path d="M 5.375 -2.921875 C 5.375 -1.953125 5.164062 -1.207031 4.75 -0.6875 C 4.34375 -0.164062 3.757812 0.09375 3 0.09375 C 2.269531 0.09375 1.691406 -0.15625 1.265625 -0.65625 C 0.835938 -1.164062 0.617188 -1.882812 0.609375 -2.8125 L 0.609375 -4.15625 C 0.609375 -5.101562 0.816406 -5.84375 1.234375 -6.375 C 1.648438 -6.914062 2.234375 -7.1875 2.984375 -7.1875 C 3.734375 -7.1875 4.316406 -6.925781 4.734375 -6.40625 C 5.148438 -5.894531 5.363281 -5.160156 5.375 -4.203125 Z M 4.484375 -4.15625 C 4.484375 -4.90625 4.359375 -5.460938 4.109375 -5.828125 C 3.867188 -6.191406 3.492188 -6.375 2.984375 -6.375 C 2.492188 -6.375 2.125 -6.1875 1.875 -5.8125 C 1.625 -5.445312 1.5 -4.90625 1.5 -4.1875 L 1.5 -2.921875 C 1.5 -2.191406 1.625 -1.640625 1.875 -1.265625 C 2.125 -0.890625 2.5 -0.703125 3 -0.703125 C 3.5 -0.703125 3.867188 -0.875 4.109375 -1.21875 C 4.347656 -1.570312 4.472656 -2.109375 4.484375 -2.828125 Z M 4.484375 -4.15625 "/></g></g></g><g fill="#ffde59" fill-opacity="1"><g transform="translate(211.485023, 45.690301)"><g><path d="M 4.984375 -7.09375 L 4.984375 -2.046875 C 4.984375 -1.378906 4.789062 -0.851562 4.40625 -0.46875 C 4.019531 -0.09375 3.484375 0.09375 2.796875 0.09375 C 2.097656 0.09375 1.5625 -0.0859375 1.1875 -0.453125 C 0.820312 -0.828125 0.632812 -1.359375 0.625 -2.046875 L 0.625 -7.09375 L 1.515625 -7.09375 L 1.515625 -2.078125 C 1.515625 -1.609375 1.613281 -1.253906 1.8125 -1.015625 C 2.019531 -0.773438 2.347656 -0.65625 2.796875 -0.65625 C 3.253906 -0.65625 3.582031 -0.773438 3.78125 -1.015625 C 3.988281 -1.253906 4.09375 -1.609375 4.09375 -2.078125 L 4.09375 -7.09375 Z M 4.984375 -7.09375 "/></g></g></g><g fill="#ffde59" fill-opacity="1"><g transform="translate(219.298165, 45.690301)"><g><path d="M 2.90625 -2.859375 L 1.65625 -2.859375 L 1.65625 0 L 0.765625 0 L 0.765625 -7.09375 L 2.75 -7.09375 C 3.445312 -7.09375 3.972656 -6.910156 4.328125 -6.546875 C 4.679688 -6.179688 4.859375 -5.648438 4.859375 -4.953125 C 4.859375 -4.515625 4.757812 -4.128906 4.5625 -3.796875 C 4.375 -3.472656 4.101562 -3.234375 3.75 -3.078125 L 5.125 -0.0625 L 5.125 0 L 4.171875 0 Z M 1.65625 -3.625 L 2.734375 -3.625 C 3.109375 -3.625 3.40625 -3.742188 3.625 -3.984375 C 3.851562 -4.234375 3.96875 -4.554688 3.96875 -4.953125 C 3.96875 -5.859375 3.554688 -6.3125 2.734375 -6.3125 L 1.65625 -6.3125 Z M 1.65625 -3.625 "/></g></g></g><g fill="#ffde59" fill-opacity="1"><g transform="translate(226.804669, 45.690301)"><g/></g></g><g fill="#ffde59" fill-opacity="1"><g transform="translate(231.303137, 45.690301)"><g><path d="M 0.765625 0 L 0.765625 -7.09375 L 2.453125 -7.09375 C 3.273438 -7.09375 3.914062 -6.832031 4.375 -6.3125 C 4.832031 -5.789062 5.0625 -5.0625 5.0625 -4.125 L 5.0625 -2.9375 C 5.0625 -2 4.828125 -1.273438 4.359375 -0.765625 C 3.898438 -0.253906 3.226562 0 2.34375 0 Z M 1.65625 -6.3125 L 1.65625 -0.765625 L 2.375 -0.765625 C 3 -0.765625 3.453125 -0.941406 3.734375 -1.296875 C 4.023438 -1.660156 4.175781 -2.191406 4.1875 -2.890625 L 4.1875 -4.15625 C 4.1875 -4.894531 4.039062 -5.4375 3.75 -5.78125 C 3.46875 -6.132812 3.035156 -6.3125 2.453125 -6.3125 Z M 1.65625 -6.3125 "/></g></g></g><g fill="#ffde59" fill-opacity="1"><g transform="translate(239.208777, 45.690301)"><g><path d="M 5.375 -2.921875 C 5.375 -1.953125 5.164062 -1.207031 4.75 -0.6875 C 4.34375 -0.164062 3.757812 0.09375 3 0.09375 C 2.269531 0.09375 1.691406 -0.15625 1.265625 -0.65625 C 0.835938 -1.164062 0.617188 -1.882812 0.609375 -2.8125 L 0.609375 -4.15625 C 0.609375 -5.101562 0.816406 -5.84375 1.234375 -6.375 C 1.648438 -6.914062 2.234375 -7.1875 2.984375 -7.1875 C 3.734375 -7.1875 4.316406 -6.925781 4.734375 -6.40625 C 5.148438 -5.894531 5.363281 -5.160156 5.375 -4.203125 Z M 4.484375 -4.15625 C 4.484375 -4.90625 4.359375 -5.460938 4.109375 -5.828125 C 3.867188 -6.191406 3.492188 -6.375 2.984375 -6.375 C 2.492188 -6.375 2.125 -6.1875 1.875 -5.8125 C 1.625 -5.445312 1.5 -4.90625 1.5 -4.1875 L 1.5 -2.921875 C 1.5 -2.191406 1.625 -1.640625 1.875 -1.265625 C 2.125 -0.890625 2.5 -0.703125 3 -0.703125 C 3.5 -0.703125 3.867188 -0.875 4.109375 -1.21875 C 4.347656 -1.570312 4.472656 -2.109375 4.484375 -2.828125 Z M 4.484375 -4.15625 "/></g></g></g><g fill="#ffde59" fill-opacity="1"><g transform="translate(247.411334, 45.690301)"><g><path d="M 5.375 -2.921875 C 5.375 -1.953125 5.164062 -1.207031 4.75 -0.6875 C 4.34375 -0.164062 3.757812 0.09375 3 0.09375 C 2.269531 0.09375 1.691406 -0.15625 1.265625 -0.65625 C 0.835938 -1.164062 0.617188 -1.882812 0.609375 -2.8125 L 0.609375 -4.15625 C 0.609375 -5.101562 0.816406 -5.84375 1.234375 -6.375 C 1.648438 -6.914062 2.234375 -7.1875 2.984375 -7.1875 C 3.734375 -7.1875 4.316406 -6.925781 4.734375 -6.40625 C 5.148438 -5.894531 5.363281 -5.160156 5.375 -4.203125 Z M 4.484375 -4.15625 C 4.484375 -4.90625 4.359375 -5.460938 4.109375 -5.828125 C 3.867188 -6.191406 3.492188 -6.375 2.984375 -6.375 C 2.492188 -6.375 2.125 -6.1875 1.875 -5.8125 C 1.625 -5.445312 1.5 -4.90625 1.5 -4.1875 L 1.5 -2.921875 C 1.5 -2.191406 1.625 -1.640625 1.875 -1.265625 C 2.125 -0.890625 2.5 -0.703125 3 -0.703125 C 3.5 -0.703125 3.867188 -0.875 4.109375 -1.21875 C 4.347656 -1.570312 4.472656 -2.109375 4.484375 -2.828125 Z M 4.484375 -4.15625 "/></g></g></g><g fill="#ffde59" fill-opacity="1"><g transform="translate(255.613868, 45.690301)"><g><path d="M 2.90625 -2.859375 L 1.65625 -2.859375 L 1.65625 0 L 0.765625 0 L 0.765625 -7.09375 L 2.75 -7.09375 C 3.445312 -7.09375 3.972656 -6.910156 4.328125 -6.546875 C 4.679688 -6.179688 4.859375 -5.648438 4.859375 -4.953125 C 4.859375 -4.515625 4.757812 -4.128906 4.5625 -3.796875 C 4.375 -3.472656 4.101562 -3.234375 3.75 -3.078125 L 5.125 -0.0625 L 5.125 0 L 4.171875 0 Z M 1.65625 -3.625 L 2.734375 -3.625 C 3.109375 -3.625 3.40625 -3.742188 3.625 -3.984375 C 3.851562 -4.234375 3.96875 -4.554688 3.96875 -4.953125 C 3.96875 -5.859375 3.554688 -6.3125 2.734375 -6.3125 L 1.65625 -6.3125 Z M 1.65625 -3.625 "/></g></g></g><g fill="#ffde59" fill-opacity="1"><g transform="translate(263.120371, 45.690301)"><g/></g></g><g fill="#ffde59" fill-opacity="1"><g transform="translate(267.618839, 45.690301)"><g><path d="M 3.859375 -1.796875 C 3.859375 -2.148438 3.757812 -2.421875 3.5625 -2.609375 C 3.375 -2.796875 3.03125 -2.976562 2.53125 -3.15625 C 2.03125 -3.332031 1.648438 -3.519531 1.390625 -3.71875 C 1.128906 -3.914062 0.929688 -4.140625 0.796875 -4.390625 C 0.660156 -4.640625 0.59375 -4.925781 0.59375 -5.25 C 0.59375 -5.8125 0.78125 -6.273438 1.15625 -6.640625 C 1.53125 -7.003906 2.023438 -7.1875 2.640625 -7.1875 C 3.046875 -7.1875 3.410156 -7.09375 3.734375 -6.90625 C 4.066406 -6.71875 4.316406 -6.457031 4.484375 -6.125 C 4.660156 -5.789062 4.75 -5.425781 4.75 -5.03125 L 3.859375 -5.03125 C 3.859375 -5.46875 3.753906 -5.804688 3.546875 -6.046875 C 3.335938 -6.296875 3.035156 -6.421875 2.640625 -6.421875 C 2.273438 -6.421875 1.992188 -6.316406 1.796875 -6.109375 C 1.597656 -5.910156 1.5 -5.628906 1.5 -5.265625 C 1.5 -4.960938 1.601562 -4.710938 1.8125 -4.515625 C 2.03125 -4.316406 2.363281 -4.140625 2.8125 -3.984375 C 3.507812 -3.742188 4.007812 -3.457031 4.3125 -3.125 C 4.613281 -2.789062 4.765625 -2.347656 4.765625 -1.796875 C 4.765625 -1.222656 4.578125 -0.765625 4.203125 -0.421875 C 3.828125 -0.078125 3.316406 0.09375 2.671875 0.09375 C 2.265625 0.09375 1.882812 0.00390625 1.53125 -0.171875 C 1.1875 -0.347656 0.910156 -0.597656 0.703125 -0.921875 C 0.503906 -1.253906 0.40625 -1.628906 0.40625 -2.046875 L 1.3125 -2.046875 C 1.3125 -1.609375 1.429688 -1.269531 1.671875 -1.03125 C 1.921875 -0.789062 2.253906 -0.671875 2.671875 -0.671875 C 3.066406 -0.671875 3.363281 -0.769531 3.5625 -0.96875 C 3.757812 -1.164062 3.859375 -1.441406 3.859375 -1.796875 Z M 3.859375 -1.796875 "/></g></g></g><g fill="#ffde59" fill-opacity="1"><g transform="translate(274.998802, 45.690301)"><g><path d="M 4.90625 -6.3125 L 3.046875 -6.3125 L 3.046875 0 L 2.15625 0 L 2.15625 -6.3125 L 0.296875 -6.3125 L 0.296875 -7.09375 L 4.90625 -7.09375 Z M 4.90625 -6.3125 "/></g></g></g><g fill="#ffde59" fill-opacity="1"><g transform="translate(282.403107, 45.690301)"><g><path d="M 4.15625 -3.28125 L 1.65625 -3.28125 L 1.65625 -0.765625 L 4.578125 -0.765625 L 4.578125 0 L 0.765625 0 L 0.765625 -7.09375 L 4.53125 -7.09375 L 4.53125 -6.3125 L 1.65625 -6.3125 L 1.65625 -4.046875 L 4.15625 -4.046875 Z M 4.15625 -3.28125 "/></g></g></g><g fill="#ffde59" fill-opacity="1"><g transform="translate(289.568904, 45.690301)"><g><path d="M 1.65625 -2.78125 L 1.65625 0 L 0.765625 0 L 0.765625 -7.09375 L 3.015625 -7.09375 C 3.679688 -7.09375 4.203125 -6.894531 4.578125 -6.5 C 4.953125 -6.101562 5.140625 -5.578125 5.140625 -4.921875 C 5.140625 -4.242188 4.957031 -3.71875 4.59375 -3.34375 C 4.238281 -2.976562 3.738281 -2.789062 3.09375 -2.78125 Z M 1.65625 -3.53125 L 3.015625 -3.53125 C 3.410156 -3.53125 3.710938 -3.648438 3.921875 -3.890625 C 4.140625 -4.128906 4.25 -4.46875 4.25 -4.90625 C 4.25 -5.332031 4.140625 -5.671875 3.921875 -5.921875 C 3.703125 -6.179688 3.40625 -6.3125 3.03125 -6.3125 L 1.65625 -6.3125 Z M 1.65625 -3.53125 "/></g></g></g><g fill="#ffde59" fill-opacity="1"><g transform="translate(187.89842, 21.014443)"><g><path d="M 4.875 -3.722656 C 4.550781 -3.917969 4.226562 -4.019531 3.878906 -4.058594 C 3.941406 -4.34375 3.941406 -4.644531 3.8125 -4.914062 C 3.554688 -5.433594 2.945312 -5.589844 2.425781 -5.394531 C 1.726562 -5.136719 1.152344 -4.5 0.675781 -3.773438 C 1.246094 -5.617188 1.945312 -7.417969 2.542969 -9.234375 C 2.671875 -9.621094 2.0625 -9.792969 1.933594 -9.402344 C 1.0625 -6.757812 -0.0507812 -4.164062 -0.621094 -1.425781 C -0.699219 -1.089844 -0.207031 -0.84375 -0.0273438 -1.179688 C 0.363281 -1.894531 0.765625 -2.621094 1.21875 -3.292969 C 1.453125 -3.632812 3.125 -5.769531 3.269531 -4.371094 C 3.269531 -4.292969 3.230469 -4.164062 3.152344 -4.007812 C 2.890625 -3.957031 2.621094 -3.863281 2.359375 -3.734375 C 1.855469 -3.488281 1.101562 -2.96875 1.0625 -2.335938 C 1.050781 -1.828125 1.464844 -1.582031 1.933594 -1.6875 C 2.566406 -1.828125 3.113281 -2.527344 3.449219 -3.0625 C 3.515625 -3.164062 3.578125 -3.28125 3.644531 -3.410156 C 3.957031 -3.410156 4.253906 -3.347656 4.550781 -3.164062 C 4.902344 -2.945312 5.238281 -3.5 4.875 -3.722656 Z M 1.75 -2.308594 C 1.59375 -2.527344 2.449219 -3.046875 2.660156 -3.164062 C 2.28125 -2.621094 1.867188 -2.152344 1.75 -2.308594 Z M 1.75 -2.308594 "/></g></g></g><g fill="#ffde59" fill-opacity="1"><g transform="translate(192.500908, 21.014443)"><g><path d="M 5.539062 -2.761719 C 4.824219 -2.503906 4.070312 -2.230469 3.347656 -1.894531 C 3.671875 -2.96875 3.957031 -4.058594 4.265625 -5.136719 C 4.292969 -5.199219 4.304688 -5.253906 4.292969 -5.304688 C 4.292969 -5.367188 4.265625 -5.421875 4.226562 -5.460938 C 4.097656 -5.617188 3.824219 -5.667969 3.695312 -5.433594 C 3.320312 -4.785156 2.917969 -4.148438 2.449219 -3.566406 C 2.191406 -3.230469 1.375 -2.089844 0.84375 -2.308594 C 0.246094 -2.554688 1.402344 -4.757812 1.453125 -5.265625 C 1.492188 -5.601562 0.90625 -5.691406 0.855469 -5.355469 C 0.726562 -4.5 -0.84375 -2.164062 0.609375 -1.6875 C 1.375 -1.441406 2.089844 -2.152344 2.542969 -2.660156 C 2.738281 -2.867188 2.917969 -3.097656 3.097656 -3.320312 C 2.957031 -2.839844 2.8125 -2.347656 2.660156 -1.855469 C 2.621094 -1.738281 2.582031 -1.621094 2.554688 -1.503906 C 1.710938 -1.050781 0.933594 -0.492188 0.335938 0.234375 C -0.167969 0.84375 -1.117188 2.90625 0.234375 3.203125 C 1.582031 3.5 2.359375 1 2.683594 0.117188 C 2.828125 -0.273438 2.957031 -0.660156 3.085938 -1.050781 C 3.941406 -1.476562 4.851562 -1.816406 5.71875 -2.140625 C 6.109375 -2.28125 5.941406 -2.90625 5.539062 -2.761719 Z M 1.101562 1.984375 C 0.945312 2.203125 0.582031 2.644531 0.351562 2.488281 C 0.117188 2.335938 0.21875 1.828125 0.285156 1.609375 C 0.429688 1.101562 0.804688 0.648438 1.167969 0.296875 C 1.492188 -0.0390625 1.867188 -0.324219 2.269531 -0.570312 C 1.972656 0.335938 1.632812 1.246094 1.101562 1.984375 Z M 1.101562 1.984375 "/></g></g></g></svg>